%TF.GenerationSoftware,Altium Limited,Altium Designer,23.11.1 (41)*%
G04 Layer_Physical_Order=4*
G04 Layer_Color=16711680*
%FSLAX26Y26*%
%MOIN*%
%TF.SameCoordinates,9526E2AF-B100-4743-A6B5-6A4C7E8B4C09*%
%TF.FilePolarity,Positive*%
%TF.FileFunction,Copper,L4,Bot,Signal*%
%TF.Part,Single*%
G01*
G75*
%TA.AperFunction,Conductor*%
%ADD23C,0.009842*%
%ADD24C,0.019685*%
%ADD25C,0.011811*%
%TA.AperFunction,ComponentPad*%
%ADD28C,0.025591*%
%ADD29O,0.041339X0.082677*%
%ADD30O,0.039370X0.078740*%
%ADD31R,0.059055X0.059055*%
%ADD32C,0.059055*%
%ADD33O,0.043622X0.088976*%
%TA.AperFunction,ViaPad*%
%ADD34C,0.031496*%
%ADD35C,0.027559*%
G36*
X1901784Y-829003D02*
X1902178D01*
X1902637Y-829069D01*
X1903687Y-829266D01*
X1904802Y-829594D01*
X1906048Y-830119D01*
X1907229Y-830840D01*
X1907754Y-831234D01*
X1908279Y-831759D01*
X1908410Y-831890D01*
X1908541Y-832021D01*
X1908672Y-832283D01*
X1908869Y-832546D01*
X1909131Y-832939D01*
X1909328Y-833399D01*
X1909591Y-833858D01*
X1909853Y-834448D01*
X1910050Y-835039D01*
X1910312Y-835760D01*
X1910509Y-836547D01*
X1910640Y-837400D01*
X1910772Y-838319D01*
X1910903Y-839303D01*
Y-840352D01*
Y-858523D01*
X1899751D01*
Y-842058D01*
Y-841992D01*
Y-841730D01*
X1899685Y-841402D01*
Y-840943D01*
X1899423Y-839959D01*
X1899226Y-839499D01*
X1898964Y-839106D01*
X1898898Y-839040D01*
X1898767Y-838843D01*
X1898504Y-838647D01*
X1898176Y-838319D01*
X1897783Y-838056D01*
X1897323Y-837859D01*
X1896799Y-837663D01*
X1896208Y-837597D01*
X1895880D01*
X1895552Y-837663D01*
X1895093Y-837794D01*
X1894568Y-837925D01*
X1894043Y-838187D01*
X1893519Y-838581D01*
X1893060Y-839040D01*
X1892994Y-839106D01*
X1892863Y-839303D01*
X1892666Y-839631D01*
X1892469Y-840155D01*
X1892272Y-840811D01*
X1892075Y-841599D01*
X1891944Y-842517D01*
X1891879Y-843632D01*
Y-858523D01*
X1880727D01*
Y-842648D01*
Y-842583D01*
Y-842320D01*
Y-841992D01*
Y-841599D01*
X1880595Y-840746D01*
X1880530Y-840352D01*
X1880464Y-840024D01*
Y-839959D01*
X1880399Y-839827D01*
X1880202Y-839434D01*
X1879808Y-838843D01*
X1879218Y-838319D01*
X1879152Y-838253D01*
X1879087Y-838187D01*
X1878890Y-838056D01*
X1878628Y-837925D01*
X1877972Y-837728D01*
X1877643Y-837597D01*
X1876856D01*
X1876528Y-837663D01*
X1876069Y-837794D01*
X1875610Y-837925D01*
X1875085Y-838187D01*
X1874560Y-838581D01*
X1874035Y-839040D01*
X1873970Y-839106D01*
X1873839Y-839303D01*
X1873642Y-839696D01*
X1873445Y-840155D01*
X1873248Y-840811D01*
X1873052Y-841664D01*
X1872920Y-842648D01*
X1872855Y-843829D01*
Y-858523D01*
X1861703D01*
Y-829594D01*
X1872068D01*
Y-833858D01*
X1872199Y-833727D01*
X1872461Y-833399D01*
X1872920Y-832939D01*
X1873445Y-832415D01*
X1874167Y-831759D01*
X1874888Y-831168D01*
X1875741Y-830578D01*
X1876594Y-830119D01*
X1876725Y-830053D01*
X1876987Y-829922D01*
X1877512Y-829725D01*
X1878168Y-829528D01*
X1878956Y-829331D01*
X1879874Y-829135D01*
X1880924Y-829003D01*
X1882104Y-828938D01*
X1882695D01*
X1883285Y-829003D01*
X1884072Y-829069D01*
X1884991Y-829266D01*
X1885843Y-829463D01*
X1886762Y-829791D01*
X1887549Y-830184D01*
X1887615Y-830250D01*
X1887877Y-830447D01*
X1888271Y-830709D01*
X1888730Y-831103D01*
X1889255Y-831627D01*
X1889845Y-832283D01*
X1890370Y-833005D01*
X1890895Y-833858D01*
Y-833792D01*
X1891026Y-833727D01*
X1891354Y-833399D01*
X1891813Y-832939D01*
X1892469Y-832283D01*
X1893191Y-831693D01*
X1893978Y-831037D01*
X1894831Y-830447D01*
X1895618Y-829987D01*
X1895749Y-829922D01*
X1896012Y-829791D01*
X1896471Y-829659D01*
X1897127Y-829463D01*
X1897914Y-829266D01*
X1898832Y-829069D01*
X1899816Y-829003D01*
X1900997Y-828938D01*
X1901456D01*
X1901784Y-829003D01*
D02*
G37*
G36*
X2100421D02*
X2101077Y-829135D01*
X2101864Y-829331D01*
X2102783Y-829594D01*
X2103832Y-829987D01*
X2104882Y-830512D01*
X2101405Y-838384D01*
X2101340Y-838319D01*
X2101077Y-838253D01*
X2100749Y-838122D01*
X2100290Y-837925D01*
X2099306Y-837663D01*
X2098781Y-837597D01*
X2098322Y-837531D01*
X2097994D01*
X2097600Y-837597D01*
X2097075Y-837728D01*
X2096551Y-837991D01*
X2096026Y-838319D01*
X2095436Y-838778D01*
X2094976Y-839368D01*
X2094911Y-839499D01*
X2094845Y-839631D01*
X2094714Y-839893D01*
X2094583Y-840155D01*
X2094452Y-840549D01*
X2094255Y-841008D01*
X2094124Y-841533D01*
X2093992Y-842123D01*
X2093796Y-842845D01*
X2093664Y-843567D01*
X2093533Y-844485D01*
X2093402Y-845403D01*
X2093336Y-846453D01*
X2093271Y-847634D01*
Y-848880D01*
Y-858523D01*
X2082119D01*
Y-829594D01*
X2092483D01*
Y-834317D01*
X2092549Y-834251D01*
X2092746Y-833858D01*
X2093074Y-833333D01*
X2093468Y-832677D01*
X2093927Y-831955D01*
X2094452Y-831299D01*
X2094976Y-830643D01*
X2095567Y-830119D01*
X2095632Y-830053D01*
X2095829Y-829922D01*
X2096223Y-829725D01*
X2096682Y-829528D01*
X2097207Y-829331D01*
X2097863Y-829135D01*
X2098650Y-829003D01*
X2099503Y-828938D01*
X2099962D01*
X2100421Y-829003D01*
D02*
G37*
G36*
X2030032Y-860491D02*
Y-860557D01*
X2029967Y-860688D01*
X2029835Y-861016D01*
X2029704Y-861344D01*
X2029507Y-861738D01*
X2029311Y-862263D01*
X2028786Y-863378D01*
X2028196Y-864559D01*
X2027540Y-865739D01*
X2026818Y-866789D01*
X2026424Y-867248D01*
X2026031Y-867642D01*
X2025899Y-867773D01*
X2025703Y-867904D01*
X2025506Y-868035D01*
X2025178Y-868232D01*
X2024784Y-868495D01*
X2024391Y-868691D01*
X2023866Y-868954D01*
X2023275Y-869216D01*
X2022620Y-869413D01*
X2021898Y-869675D01*
X2021111Y-869872D01*
X2020258Y-870003D01*
X2019340Y-870135D01*
X2018290Y-870266D01*
X2016781D01*
X2016191Y-870200D01*
X2015403D01*
X2014354Y-870135D01*
X2013108Y-870003D01*
X2011599Y-869807D01*
X2009828Y-869610D01*
X2008975Y-861869D01*
X2009106D01*
X2009368Y-862000D01*
X2009893Y-862131D01*
X2010549Y-862263D01*
X2011336Y-862394D01*
X2012189Y-862525D01*
X2013239Y-862591D01*
X2014288Y-862656D01*
X2014616D01*
X2014944Y-862591D01*
X2015403Y-862525D01*
X2016453Y-862263D01*
X2016978Y-862066D01*
X2017437Y-861738D01*
X2017503Y-861672D01*
X2017634Y-861541D01*
X2017896Y-861344D01*
X2018159Y-861016D01*
X2018487Y-860557D01*
X2018880Y-859967D01*
X2019208Y-859311D01*
X2019536Y-858523D01*
X2007400Y-829594D01*
X2019077D01*
X2025047Y-848880D01*
X2030557Y-829594D01*
X2041512D01*
X2030032Y-860491D01*
D02*
G37*
G36*
X1990672Y-829003D02*
X1991984Y-829069D01*
X1993296Y-829200D01*
X1994674Y-829331D01*
X1995855Y-829528D01*
X1995986D01*
X1996380Y-829659D01*
X1996904Y-829791D01*
X1997626Y-830053D01*
X1998413Y-830381D01*
X1999266Y-830775D01*
X2000119Y-831299D01*
X2000906Y-831890D01*
X2000972Y-831955D01*
X2001168Y-832087D01*
X2001431Y-832415D01*
X2001759Y-832743D01*
X2002087Y-833267D01*
X2002480Y-833858D01*
X2002808Y-834579D01*
X2003136Y-835367D01*
X2003202Y-835432D01*
X2003267Y-835760D01*
X2003399Y-836154D01*
X2003595Y-836744D01*
X2003727Y-837400D01*
X2003858Y-838122D01*
X2003924Y-838843D01*
X2003989Y-839631D01*
Y-852423D01*
Y-852488D01*
Y-852751D01*
Y-853144D01*
Y-853603D01*
X2004055Y-854653D01*
X2004120Y-855178D01*
X2004186Y-855637D01*
Y-855703D01*
X2004252Y-855834D01*
X2004317Y-856096D01*
X2004448Y-856424D01*
X2004580Y-856818D01*
X2004776Y-857343D01*
X2005039Y-857867D01*
X2005367Y-858523D01*
X1994936D01*
Y-858458D01*
X1994871Y-858327D01*
X1994608Y-857867D01*
X1994346Y-857343D01*
X1994149Y-856883D01*
Y-856752D01*
X1994018Y-856424D01*
X1993887Y-855834D01*
X1993821Y-855440D01*
X1993755Y-854981D01*
X1993690Y-855047D01*
X1993362Y-855309D01*
X1992968Y-855703D01*
X1992378Y-856162D01*
X1991722Y-856621D01*
X1991000Y-857146D01*
X1990213Y-857605D01*
X1989426Y-857999D01*
X1989295Y-858064D01*
X1988901Y-858195D01*
X1988311Y-858392D01*
X1987458Y-858589D01*
X1986474Y-858786D01*
X1985293Y-858983D01*
X1983981Y-859114D01*
X1982538Y-859179D01*
X1982013D01*
X1981685Y-859114D01*
X1981226D01*
X1980767Y-859048D01*
X1979586Y-858851D01*
X1978340Y-858589D01*
X1977027Y-858195D01*
X1975781Y-857605D01*
X1974666Y-856818D01*
X1974535Y-856687D01*
X1974272Y-856359D01*
X1973813Y-855834D01*
X1973354Y-855178D01*
X1972829Y-854325D01*
X1972370Y-853275D01*
X1972108Y-852160D01*
X1971976Y-850914D01*
Y-850848D01*
Y-850783D01*
Y-850389D01*
X1972108Y-849733D01*
X1972239Y-849011D01*
X1972436Y-848159D01*
X1972764Y-847240D01*
X1973223Y-846322D01*
X1973879Y-845469D01*
X1973944Y-845403D01*
X1974272Y-845141D01*
X1974797Y-844747D01*
X1975519Y-844288D01*
X1976503Y-843763D01*
X1977093Y-843501D01*
X1977749Y-843239D01*
X1978471Y-842976D01*
X1979258Y-842779D01*
X1980111Y-842517D01*
X1981029Y-842320D01*
X1981095D01*
X1981292Y-842255D01*
X1981620Y-842189D01*
X1982013Y-842123D01*
X1982538Y-841992D01*
X1983128Y-841927D01*
X1984440Y-841664D01*
X1985752Y-841336D01*
X1987130Y-841074D01*
X1987720Y-840943D01*
X1988311Y-840811D01*
X1988770Y-840680D01*
X1989164Y-840615D01*
X1989229D01*
X1989492Y-840549D01*
X1989885Y-840418D01*
X1990410Y-840221D01*
X1991000Y-840024D01*
X1991656Y-839827D01*
X1993165Y-839237D01*
Y-839171D01*
Y-838909D01*
X1993100Y-838581D01*
X1993034Y-838122D01*
X1992837Y-837203D01*
X1992575Y-836744D01*
X1992312Y-836416D01*
X1992247Y-836351D01*
X1992116Y-836285D01*
X1991919Y-836154D01*
X1991591Y-835957D01*
X1991197Y-835826D01*
X1990672Y-835695D01*
X1990016Y-835629D01*
X1989295Y-835563D01*
X1988835D01*
X1988376Y-835629D01*
X1987720Y-835695D01*
X1986408Y-835957D01*
X1985752Y-836154D01*
X1985162Y-836482D01*
X1985096D01*
X1984965Y-836613D01*
X1984768Y-836810D01*
X1984572Y-837007D01*
X1984309Y-837400D01*
X1983981Y-837794D01*
X1983719Y-838319D01*
X1983456Y-838975D01*
X1972829Y-837859D01*
Y-837728D01*
X1972960Y-837400D01*
X1973091Y-836875D01*
X1973288Y-836285D01*
X1973485Y-835563D01*
X1973813Y-834842D01*
X1974141Y-834186D01*
X1974535Y-833530D01*
X1974600Y-833464D01*
X1974732Y-833267D01*
X1974994Y-832939D01*
X1975388Y-832546D01*
X1975847Y-832152D01*
X1976371Y-831693D01*
X1977027Y-831234D01*
X1977815Y-830775D01*
X1977880Y-830709D01*
X1978077Y-830643D01*
X1978405Y-830447D01*
X1978930Y-830315D01*
X1979520Y-830053D01*
X1980242Y-829856D01*
X1981095Y-829659D01*
X1982013Y-829463D01*
X1982144D01*
X1982472Y-829397D01*
X1982997Y-829266D01*
X1983719Y-829200D01*
X1984637Y-829069D01*
X1985555Y-829003D01*
X1986671Y-828938D01*
X1989557D01*
X1990672Y-829003D01*
D02*
G37*
G36*
X1949148Y-848683D02*
X1968499D01*
Y-858523D01*
X1936815D01*
Y-818573D01*
X1949148D01*
Y-848683D01*
D02*
G37*
G36*
X1718957Y-818639D02*
X1719416D01*
X1719941Y-818704D01*
X1721253Y-818901D01*
X1722696Y-819295D01*
X1724139Y-819819D01*
X1725583Y-820475D01*
X1726239Y-820935D01*
X1726829Y-821459D01*
X1726895D01*
X1726960Y-821591D01*
X1727354Y-821984D01*
X1727813Y-822575D01*
X1728403Y-823427D01*
X1728994Y-824477D01*
X1729519Y-825658D01*
X1729847Y-827035D01*
X1729912Y-827757D01*
X1729978Y-828544D01*
Y-828610D01*
Y-828675D01*
Y-828872D01*
Y-829135D01*
X1729847Y-829791D01*
X1729716Y-830643D01*
X1729453Y-831562D01*
X1729060Y-832611D01*
X1728469Y-833661D01*
X1727747Y-834645D01*
X1727682Y-834711D01*
X1727485Y-834907D01*
X1727091Y-835235D01*
X1726632Y-835629D01*
X1726042Y-836023D01*
X1725255Y-836482D01*
X1724402Y-836941D01*
X1723418Y-837335D01*
X1723484D01*
X1723615Y-837400D01*
X1723812Y-837466D01*
X1724139Y-837531D01*
X1724927Y-837794D01*
X1725845Y-838122D01*
X1726895Y-838647D01*
X1727944Y-839237D01*
X1728928Y-839959D01*
X1729781Y-840877D01*
X1729847Y-841008D01*
X1730109Y-841336D01*
X1730437Y-841861D01*
X1730831Y-842583D01*
X1731159Y-843501D01*
X1731487Y-844551D01*
X1731749Y-845797D01*
X1731815Y-847175D01*
Y-847240D01*
Y-847306D01*
Y-847699D01*
X1731749Y-848290D01*
X1731618Y-849077D01*
X1731421Y-849930D01*
X1731159Y-850848D01*
X1730831Y-851832D01*
X1730306Y-852816D01*
X1730240Y-852947D01*
X1730043Y-853210D01*
X1729716Y-853669D01*
X1729256Y-854194D01*
X1728732Y-854850D01*
X1728010Y-855440D01*
X1727288Y-856096D01*
X1726370Y-856687D01*
X1726304Y-856752D01*
X1726108Y-856818D01*
X1725714Y-857015D01*
X1725255Y-857211D01*
X1724599Y-857408D01*
X1723746Y-857605D01*
X1722828Y-857802D01*
X1721712Y-857999D01*
X1721515D01*
X1721319Y-858064D01*
X1721056D01*
X1720335Y-858130D01*
X1719416Y-858261D01*
X1718498Y-858327D01*
X1717580Y-858458D01*
X1716792Y-858523D01*
X1694882D01*
Y-818573D01*
X1718498D01*
X1718957Y-818639D01*
D02*
G37*
G36*
X2061258Y-829003D02*
X2061848D01*
X2062504Y-829069D01*
X2063226Y-829200D01*
X2064800Y-829397D01*
X2066440Y-829725D01*
X2068015Y-830184D01*
X2069458Y-830840D01*
X2069523D01*
X2069589Y-830906D01*
X2069786Y-831037D01*
X2070048Y-831168D01*
X2070704Y-831627D01*
X2071492Y-832218D01*
X2072410Y-833005D01*
X2073328Y-833989D01*
X2074181Y-835104D01*
X2074968Y-836351D01*
Y-836416D01*
X2075034Y-836482D01*
X2075165Y-836744D01*
X2075296Y-837007D01*
X2075427Y-837335D01*
X2075559Y-837794D01*
X2075756Y-838253D01*
X2075952Y-838843D01*
X2076084Y-839434D01*
X2076280Y-840155D01*
X2076608Y-841730D01*
X2076805Y-843567D01*
X2076871Y-845600D01*
Y-846847D01*
X2054632D01*
Y-846978D01*
X2054698Y-847306D01*
X2054764Y-847765D01*
X2054895Y-848355D01*
X2055091Y-849011D01*
X2055354Y-849667D01*
X2055616Y-850323D01*
X2056010Y-850848D01*
X2056075Y-850914D01*
X2056338Y-851111D01*
X2056666Y-851439D01*
X2057125Y-851767D01*
X2057781Y-852095D01*
X2058503Y-852423D01*
X2059290Y-852619D01*
X2060208Y-852685D01*
X2060471D01*
X2060799Y-852619D01*
X2061192Y-852554D01*
X2061651Y-852488D01*
X2062176Y-852357D01*
X2062767Y-852160D01*
X2063291Y-851898D01*
X2063357D01*
X2063423Y-851767D01*
X2063619Y-851635D01*
X2063882Y-851439D01*
X2064210Y-851242D01*
X2064538Y-850914D01*
X2064866Y-850520D01*
X2065260Y-850061D01*
X2076215Y-851045D01*
Y-851111D01*
X2076084Y-851242D01*
X2075952Y-851439D01*
X2075756Y-851767D01*
X2075231Y-852554D01*
X2074509Y-853472D01*
X2073591Y-854522D01*
X2072541Y-855571D01*
X2071426Y-856555D01*
X2070114Y-857343D01*
X2070048D01*
X2069983Y-857408D01*
X2069720Y-857539D01*
X2069458Y-857605D01*
X2069064Y-857736D01*
X2068671Y-857933D01*
X2068146Y-858064D01*
X2067555Y-858261D01*
X2066834Y-858458D01*
X2066112Y-858589D01*
X2065260Y-858720D01*
X2064341Y-858917D01*
X2063357Y-858983D01*
X2062307Y-859114D01*
X2061192Y-859179D01*
X2059093D01*
X2058568Y-859114D01*
X2058044D01*
X2056731Y-858983D01*
X2055288Y-858786D01*
X2053780Y-858523D01*
X2052271Y-858130D01*
X2050959Y-857605D01*
X2050893D01*
X2050827Y-857539D01*
X2050434Y-857277D01*
X2049778Y-856883D01*
X2049056Y-856359D01*
X2048204Y-855637D01*
X2047285Y-854784D01*
X2046367Y-853735D01*
X2045514Y-852488D01*
Y-852423D01*
X2045448Y-852357D01*
X2045317Y-852160D01*
X2045186Y-851832D01*
X2044989Y-851504D01*
X2044858Y-851111D01*
X2044464Y-850127D01*
X2044005Y-848880D01*
X2043677Y-847503D01*
X2043415Y-845863D01*
X2043349Y-844157D01*
Y-844091D01*
Y-843829D01*
Y-843501D01*
X2043415Y-843042D01*
X2043480Y-842451D01*
X2043611Y-841795D01*
X2043743Y-841008D01*
X2043874Y-840221D01*
X2044399Y-838450D01*
X2044727Y-837531D01*
X2045186Y-836613D01*
X2045645Y-835695D01*
X2046236Y-834842D01*
X2046891Y-833923D01*
X2047679Y-833136D01*
X2047744Y-833071D01*
X2047876Y-832939D01*
X2048138Y-832743D01*
X2048466Y-832480D01*
X2048925Y-832152D01*
X2049450Y-831824D01*
X2050106Y-831431D01*
X2050827Y-831037D01*
X2051615Y-830643D01*
X2052533Y-830250D01*
X2053517Y-829922D01*
X2054567Y-829594D01*
X2055747Y-829331D01*
X2056994Y-829135D01*
X2058306Y-829003D01*
X2059684Y-828938D01*
X2060733D01*
X2061258Y-829003D01*
D02*
G37*
G36*
X1840973D02*
X1841695Y-829069D01*
X1842547Y-829200D01*
X1843466Y-829331D01*
X1844450Y-829594D01*
X1845499Y-829856D01*
X1846615Y-830184D01*
X1847664Y-830578D01*
X1848780Y-831037D01*
X1849829Y-831627D01*
X1850879Y-832349D01*
X1851863Y-833071D01*
X1852716Y-833989D01*
X1852781Y-834055D01*
X1852847Y-834186D01*
X1853043Y-834383D01*
X1853306Y-834711D01*
X1853568Y-835104D01*
X1853831Y-835563D01*
X1854159Y-836154D01*
X1854552Y-836744D01*
X1854880Y-837466D01*
X1855208Y-838253D01*
X1855733Y-839959D01*
X1856192Y-841861D01*
X1856258Y-842911D01*
X1856323Y-844026D01*
Y-844091D01*
Y-844288D01*
Y-844682D01*
X1856258Y-845141D01*
X1856192Y-845666D01*
X1856061Y-846322D01*
X1855930Y-847043D01*
X1855799Y-847896D01*
X1855208Y-849602D01*
X1854880Y-850520D01*
X1854421Y-851439D01*
X1853962Y-852357D01*
X1853306Y-853210D01*
X1852650Y-854063D01*
X1851863Y-854915D01*
X1851797Y-854981D01*
X1851666Y-855112D01*
X1851403Y-855309D01*
X1851075Y-855571D01*
X1850616Y-855899D01*
X1850026Y-856293D01*
X1849370Y-856621D01*
X1848648Y-857015D01*
X1847861Y-857474D01*
X1846877Y-857802D01*
X1845893Y-858195D01*
X1844778Y-858523D01*
X1843597Y-858786D01*
X1842351Y-858983D01*
X1841039Y-859114D01*
X1839595Y-859179D01*
X1838939D01*
X1838415Y-859114D01*
X1837824Y-859048D01*
X1837168Y-858983D01*
X1836381Y-858917D01*
X1835528Y-858720D01*
X1833757Y-858327D01*
X1831855Y-857736D01*
X1830936Y-857343D01*
X1829952Y-856818D01*
X1829100Y-856293D01*
X1828247Y-855703D01*
X1828181Y-855637D01*
X1828050Y-855506D01*
X1827787Y-855243D01*
X1827459Y-854915D01*
X1827000Y-854456D01*
X1826607Y-853931D01*
X1826082Y-853341D01*
X1825623Y-852619D01*
X1825164Y-851832D01*
X1824639Y-850979D01*
X1824245Y-849995D01*
X1823851Y-848946D01*
X1823458Y-847896D01*
X1823196Y-846715D01*
X1823064Y-845469D01*
X1822999Y-844157D01*
Y-844091D01*
Y-843895D01*
Y-843501D01*
X1823064Y-843042D01*
X1823130Y-842517D01*
X1823261Y-841861D01*
X1823392Y-841074D01*
X1823589Y-840287D01*
X1824114Y-838581D01*
X1824442Y-837663D01*
X1824901Y-836744D01*
X1825426Y-835826D01*
X1826016Y-834973D01*
X1826672Y-834120D01*
X1827459Y-833267D01*
X1827525Y-833202D01*
X1827656Y-833071D01*
X1827919Y-832874D01*
X1828247Y-832611D01*
X1828706Y-832283D01*
X1829296Y-831890D01*
X1829887Y-831496D01*
X1830674Y-831103D01*
X1831461Y-830709D01*
X1832380Y-830315D01*
X1833363Y-829922D01*
X1834413Y-829594D01*
X1835594Y-829331D01*
X1836840Y-829135D01*
X1838152Y-829003D01*
X1839530Y-828938D01*
X1840383D01*
X1840973Y-829003D01*
D02*
G37*
G36*
X1813027Y-829594D02*
X1819128D01*
Y-837728D01*
X1813027D01*
Y-847962D01*
Y-848027D01*
Y-848224D01*
Y-848552D01*
X1813093Y-848946D01*
X1813159Y-849733D01*
X1813224Y-850127D01*
X1813355Y-850389D01*
Y-850455D01*
X1813487Y-850520D01*
X1813815Y-850848D01*
X1814077Y-851045D01*
X1814405Y-851176D01*
X1814799Y-851242D01*
X1815258Y-851307D01*
X1815520D01*
X1815783Y-851242D01*
X1816176D01*
X1816636Y-851176D01*
X1817226Y-851045D01*
X1817882Y-850848D01*
X1818669Y-850651D01*
X1819522Y-858327D01*
X1819456D01*
X1819325Y-858392D01*
X1819128D01*
X1818800Y-858458D01*
X1818472Y-858523D01*
X1818013Y-858589D01*
X1817029Y-858720D01*
X1815848Y-858917D01*
X1814536Y-859048D01*
X1813159Y-859114D01*
X1811781Y-859179D01*
X1811125D01*
X1810403Y-859114D01*
X1809485Y-859048D01*
X1808501Y-858917D01*
X1807451Y-858720D01*
X1806533Y-858458D01*
X1805680Y-858130D01*
X1805615Y-858064D01*
X1805352Y-857933D01*
X1805024Y-857671D01*
X1804565Y-857343D01*
X1804106Y-856883D01*
X1803647Y-856359D01*
X1803188Y-855703D01*
X1802794Y-854915D01*
X1802728Y-854784D01*
X1802663Y-854522D01*
X1802532Y-853997D01*
X1802335Y-853210D01*
X1802138Y-852226D01*
X1802007Y-851045D01*
X1801941Y-849602D01*
X1801876Y-847896D01*
Y-837728D01*
X1797808D01*
Y-829594D01*
X1801876D01*
Y-824280D01*
X1813027Y-818573D01*
Y-829594D01*
D02*
G37*
G36*
X1788231D02*
X1794332D01*
Y-837728D01*
X1788231D01*
Y-847962D01*
Y-848027D01*
Y-848224D01*
Y-848552D01*
X1788296Y-848946D01*
X1788362Y-849733D01*
X1788428Y-850127D01*
X1788559Y-850389D01*
Y-850455D01*
X1788690Y-850520D01*
X1789018Y-850848D01*
X1789280Y-851045D01*
X1789608Y-851176D01*
X1790002Y-851242D01*
X1790461Y-851307D01*
X1790724D01*
X1790986Y-851242D01*
X1791380D01*
X1791839Y-851176D01*
X1792429Y-851045D01*
X1793085Y-850848D01*
X1793872Y-850651D01*
X1794725Y-858327D01*
X1794659D01*
X1794528Y-858392D01*
X1794332D01*
X1794004Y-858458D01*
X1793676Y-858523D01*
X1793216Y-858589D01*
X1792232Y-858720D01*
X1791052Y-858917D01*
X1789739Y-859048D01*
X1788362Y-859114D01*
X1786984Y-859179D01*
X1786328D01*
X1785607Y-859114D01*
X1784688Y-859048D01*
X1783704Y-858917D01*
X1782655Y-858720D01*
X1781736Y-858458D01*
X1780883Y-858130D01*
X1780818Y-858064D01*
X1780555Y-857933D01*
X1780227Y-857671D01*
X1779768Y-857343D01*
X1779309Y-856883D01*
X1778850Y-856359D01*
X1778391Y-855703D01*
X1777997Y-854915D01*
X1777931Y-854784D01*
X1777866Y-854522D01*
X1777735Y-853997D01*
X1777538Y-853210D01*
X1777341Y-852226D01*
X1777210Y-851045D01*
X1777144Y-849602D01*
X1777079Y-847896D01*
Y-837728D01*
X1773012D01*
Y-829594D01*
X1777079D01*
Y-824280D01*
X1788231Y-818573D01*
Y-829594D01*
D02*
G37*
G36*
X1754119Y-829003D02*
X1754840Y-829069D01*
X1755693Y-829200D01*
X1756611Y-829331D01*
X1757595Y-829594D01*
X1758645Y-829856D01*
X1759760Y-830184D01*
X1760810Y-830578D01*
X1761925Y-831037D01*
X1762975Y-831627D01*
X1764024Y-832349D01*
X1765008Y-833071D01*
X1765861Y-833989D01*
X1765927Y-834055D01*
X1765992Y-834186D01*
X1766189Y-834383D01*
X1766451Y-834711D01*
X1766714Y-835104D01*
X1766976Y-835563D01*
X1767304Y-836154D01*
X1767698Y-836744D01*
X1768026Y-837466D01*
X1768354Y-838253D01*
X1768879Y-839959D01*
X1769338Y-841861D01*
X1769403Y-842911D01*
X1769469Y-844026D01*
Y-844091D01*
Y-844288D01*
Y-844682D01*
X1769403Y-845141D01*
X1769338Y-845666D01*
X1769207Y-846322D01*
X1769075Y-847043D01*
X1768944Y-847896D01*
X1768354Y-849602D01*
X1768026Y-850520D01*
X1767567Y-851439D01*
X1767108Y-852357D01*
X1766451Y-853210D01*
X1765795Y-854063D01*
X1765008Y-854915D01*
X1764943Y-854981D01*
X1764812Y-855112D01*
X1764549Y-855309D01*
X1764221Y-855571D01*
X1763762Y-855899D01*
X1763171Y-856293D01*
X1762515Y-856621D01*
X1761794Y-857015D01*
X1761007Y-857474D01*
X1760023Y-857802D01*
X1759039Y-858195D01*
X1757924Y-858523D01*
X1756743Y-858786D01*
X1755496Y-858983D01*
X1754184Y-859114D01*
X1752741Y-859179D01*
X1752085D01*
X1751560Y-859114D01*
X1750970Y-859048D01*
X1750314Y-858983D01*
X1749527Y-858917D01*
X1748674Y-858720D01*
X1746903Y-858327D01*
X1745000Y-857736D01*
X1744082Y-857343D01*
X1743098Y-856818D01*
X1742245Y-856293D01*
X1741392Y-855703D01*
X1741327Y-855637D01*
X1741196Y-855506D01*
X1740933Y-855243D01*
X1740605Y-854915D01*
X1740146Y-854456D01*
X1739752Y-853931D01*
X1739227Y-853341D01*
X1738768Y-852619D01*
X1738309Y-851832D01*
X1737784Y-850979D01*
X1737391Y-849995D01*
X1736997Y-848946D01*
X1736603Y-847896D01*
X1736341Y-846715D01*
X1736210Y-845469D01*
X1736144Y-844157D01*
Y-844091D01*
Y-843895D01*
Y-843501D01*
X1736210Y-843042D01*
X1736275Y-842517D01*
X1736407Y-841861D01*
X1736538Y-841074D01*
X1736735Y-840287D01*
X1737259Y-838581D01*
X1737588Y-837663D01*
X1738047Y-836744D01*
X1738572Y-835826D01*
X1739162Y-834973D01*
X1739818Y-834120D01*
X1740605Y-833267D01*
X1740671Y-833202D01*
X1740802Y-833071D01*
X1741064Y-832874D01*
X1741392Y-832611D01*
X1741851Y-832283D01*
X1742442Y-831890D01*
X1743032Y-831496D01*
X1743820Y-831103D01*
X1744607Y-830709D01*
X1745525Y-830315D01*
X1746509Y-829922D01*
X1747559Y-829594D01*
X1748739Y-829331D01*
X1749986Y-829135D01*
X1751298Y-829003D01*
X1752676Y-828938D01*
X1753528D01*
X1754119Y-829003D01*
D02*
G37*
%LPC*%
G36*
X1993165Y-844813D02*
X1993034Y-844879D01*
X1992772Y-844944D01*
X1992312Y-845141D01*
X1991656Y-845338D01*
X1990935Y-845535D01*
X1990148Y-845797D01*
X1988311Y-846256D01*
X1988245D01*
X1988179Y-846322D01*
X1987786Y-846387D01*
X1987196Y-846584D01*
X1986540Y-846847D01*
X1985818Y-847109D01*
X1985096Y-847371D01*
X1984506Y-847699D01*
X1984047Y-848027D01*
X1983981Y-848093D01*
X1983916Y-848159D01*
X1983784Y-848355D01*
X1983588Y-848618D01*
X1983259Y-849274D01*
X1983194Y-849667D01*
X1983128Y-850061D01*
Y-850127D01*
Y-850258D01*
X1983194Y-850520D01*
X1983259Y-850848D01*
X1983522Y-851504D01*
X1983719Y-851898D01*
X1984047Y-852226D01*
X1984112D01*
X1984244Y-852357D01*
X1984440Y-852488D01*
X1984703Y-852619D01*
X1985096Y-852751D01*
X1985555Y-852882D01*
X1986146Y-852947D01*
X1986736Y-853013D01*
X1987064D01*
X1987392Y-852947D01*
X1987851Y-852882D01*
X1988376Y-852816D01*
X1988967Y-852619D01*
X1989557Y-852423D01*
X1990148Y-852160D01*
X1990213Y-852095D01*
X1990410Y-851963D01*
X1990672Y-851832D01*
X1991066Y-851570D01*
X1991787Y-850848D01*
X1992181Y-850455D01*
X1992444Y-849995D01*
X1992509Y-849930D01*
X1992575Y-849733D01*
X1992706Y-849471D01*
X1992837Y-849077D01*
X1992968Y-848552D01*
X1993034Y-848027D01*
X1993165Y-847306D01*
Y-846584D01*
Y-844813D01*
D02*
G37*
G36*
X1712725Y-826642D02*
X1707346D01*
Y-834251D01*
X1713119D01*
X1713643Y-834186D01*
X1714234Y-834120D01*
X1714890Y-833989D01*
X1715546Y-833858D01*
X1716202Y-833595D01*
X1716661Y-833267D01*
X1716727Y-833202D01*
X1716858Y-833071D01*
X1717055Y-832874D01*
X1717252Y-832546D01*
X1717448Y-832152D01*
X1717645Y-831627D01*
X1717776Y-831037D01*
X1717842Y-830381D01*
Y-830315D01*
Y-830119D01*
X1717776Y-829791D01*
X1717711Y-829397D01*
X1717580Y-829003D01*
X1717317Y-828544D01*
X1717055Y-828085D01*
X1716661Y-827691D01*
X1716595Y-827626D01*
X1716464Y-827495D01*
X1716136Y-827363D01*
X1715743Y-827167D01*
X1715218Y-826970D01*
X1714562Y-826773D01*
X1713709Y-826707D01*
X1712725Y-826642D01*
D02*
G37*
G36*
X1713578Y-841861D02*
X1707346D01*
Y-849930D01*
X1714103D01*
X1714693Y-849864D01*
X1715349Y-849799D01*
X1716071Y-849667D01*
X1716858Y-849471D01*
X1717514Y-849208D01*
X1718104Y-848815D01*
X1718170Y-848749D01*
X1718301Y-848618D01*
X1718498Y-848355D01*
X1718760Y-848027D01*
X1719023Y-847568D01*
X1719219Y-847043D01*
X1719351Y-846453D01*
X1719416Y-845797D01*
Y-845731D01*
Y-845469D01*
X1719351Y-845207D01*
X1719285Y-844747D01*
X1719088Y-844354D01*
X1718891Y-843829D01*
X1718563Y-843370D01*
X1718104Y-842976D01*
X1718039Y-842911D01*
X1717842Y-842779D01*
X1717514Y-842648D01*
X1717055Y-842386D01*
X1716399Y-842189D01*
X1715611Y-842058D01*
X1714693Y-841927D01*
X1713578Y-841861D01*
D02*
G37*
G36*
X2060143Y-835498D02*
X2059684D01*
X2059224Y-835629D01*
X2058634Y-835760D01*
X2057978Y-836023D01*
X2057256Y-836416D01*
X2056535Y-836941D01*
X2055879Y-837663D01*
X2055813Y-837728D01*
X2055747Y-837925D01*
X2055551Y-838187D01*
X2055354Y-838647D01*
X2055157Y-839171D01*
X2054960Y-839827D01*
X2054764Y-840615D01*
X2054632Y-841533D01*
X2065588D01*
Y-841467D01*
Y-841402D01*
X2065522Y-841008D01*
X2065391Y-840418D01*
X2065260Y-839762D01*
X2064997Y-838975D01*
X2064735Y-838253D01*
X2064341Y-837531D01*
X2063816Y-836941D01*
X2063751Y-836875D01*
X2063554Y-836744D01*
X2063291Y-836482D01*
X2062832Y-836219D01*
X2062307Y-835957D01*
X2061717Y-835695D01*
X2060930Y-835563D01*
X2060143Y-835498D01*
D02*
G37*
G36*
X1839727Y-836547D02*
X1839333D01*
X1838874Y-836613D01*
X1838349Y-836810D01*
X1837693Y-837007D01*
X1837037Y-837335D01*
X1836381Y-837794D01*
X1835725Y-838450D01*
X1835659Y-838515D01*
X1835463Y-838778D01*
X1835200Y-839237D01*
X1834938Y-839893D01*
X1834676Y-840680D01*
X1834413Y-841664D01*
X1834216Y-842845D01*
X1834151Y-844157D01*
Y-844223D01*
Y-844354D01*
Y-844551D01*
Y-844813D01*
X1834216Y-845469D01*
X1834348Y-846322D01*
X1834544Y-847240D01*
X1834807Y-848224D01*
X1835135Y-849077D01*
X1835659Y-849864D01*
X1835725Y-849930D01*
X1835922Y-850127D01*
X1836315Y-850455D01*
X1836775Y-850783D01*
X1837300Y-851111D01*
X1838021Y-851439D01*
X1838808Y-851635D01*
X1839661Y-851701D01*
X1840055D01*
X1840514Y-851635D01*
X1841039Y-851504D01*
X1841695Y-851242D01*
X1842351Y-850979D01*
X1843007Y-850520D01*
X1843597Y-849930D01*
X1843663Y-849864D01*
X1843860Y-849602D01*
X1844122Y-849143D01*
X1844384Y-848487D01*
X1844647Y-847699D01*
X1844909Y-846650D01*
X1845106Y-845469D01*
X1845171Y-844026D01*
Y-843960D01*
Y-843829D01*
Y-843698D01*
Y-843435D01*
X1845106Y-842714D01*
X1844975Y-841927D01*
X1844778Y-841008D01*
X1844515Y-840090D01*
X1844122Y-839237D01*
X1843597Y-838450D01*
X1843532Y-838384D01*
X1843335Y-838122D01*
X1843007Y-837859D01*
X1842547Y-837466D01*
X1841957Y-837138D01*
X1841301Y-836810D01*
X1840580Y-836613D01*
X1839727Y-836547D01*
D02*
G37*
G36*
X1752872D02*
X1752479D01*
X1752020Y-836613D01*
X1751495Y-836810D01*
X1750839Y-837007D01*
X1750183Y-837335D01*
X1749527Y-837794D01*
X1748871Y-838450D01*
X1748805Y-838515D01*
X1748608Y-838778D01*
X1748346Y-839237D01*
X1748083Y-839893D01*
X1747821Y-840680D01*
X1747559Y-841664D01*
X1747362Y-842845D01*
X1747296Y-844157D01*
Y-844223D01*
Y-844354D01*
Y-844551D01*
Y-844813D01*
X1747362Y-845469D01*
X1747493Y-846322D01*
X1747690Y-847240D01*
X1747952Y-848224D01*
X1748280Y-849077D01*
X1748805Y-849864D01*
X1748871Y-849930D01*
X1749068Y-850127D01*
X1749461Y-850455D01*
X1749920Y-850783D01*
X1750445Y-851111D01*
X1751167Y-851439D01*
X1751954Y-851635D01*
X1752807Y-851701D01*
X1753200D01*
X1753659Y-851635D01*
X1754184Y-851504D01*
X1754840Y-851242D01*
X1755496Y-850979D01*
X1756152Y-850520D01*
X1756743Y-849930D01*
X1756808Y-849864D01*
X1757005Y-849602D01*
X1757267Y-849143D01*
X1757530Y-848487D01*
X1757792Y-847699D01*
X1758055Y-846650D01*
X1758252Y-845469D01*
X1758317Y-844026D01*
Y-843960D01*
Y-843829D01*
Y-843698D01*
Y-843435D01*
X1758252Y-842714D01*
X1758120Y-841927D01*
X1757924Y-841008D01*
X1757661Y-840090D01*
X1757267Y-839237D01*
X1756743Y-838450D01*
X1756677Y-838384D01*
X1756480Y-838122D01*
X1756152Y-837859D01*
X1755693Y-837466D01*
X1755103Y-837138D01*
X1754447Y-836810D01*
X1753725Y-836613D01*
X1752872Y-836547D01*
D02*
G37*
%LPD*%
D23*
X535639Y232490D02*
X559055Y255905D01*
Y338583D01*
X523828Y232490D02*
X535639D01*
X519685Y228346D02*
X523828Y232490D01*
X535433Y137795D02*
X586614Y86614D01*
X988189D01*
X957922Y539370D02*
X960630D01*
X944037Y553255D02*
X957922Y539370D01*
X773727Y553255D02*
X944037D01*
X559055Y338583D02*
X773727Y553255D01*
X773551Y575693D02*
X1032386D01*
X519685Y321827D02*
X773551Y575693D01*
X1032386D02*
X1035433Y578740D01*
X519685Y267716D02*
Y321827D01*
X935086Y137795D02*
X942960Y145669D01*
X783465Y137795D02*
X935086D01*
X942960Y145669D02*
X948819D01*
X988189Y86614D02*
X1039370Y137795D01*
D24*
X1649606Y326772D02*
X1838583D01*
D25*
X1437008Y503937D02*
X1581102Y648032D01*
X812037Y503937D02*
X1437008D01*
X1581102Y648032D02*
Y720472D01*
X1551181Y480315D02*
X1681102Y610236D01*
X772667Y480315D02*
X1551181D01*
X1681102Y610236D02*
Y720472D01*
X795276Y519685D02*
X796289D01*
X812037Y503937D01*
X755905Y492126D02*
X760856D01*
X772667Y480315D01*
D28*
X1630315Y247244D02*
D03*
X1857874D02*
D03*
D29*
X1914173Y266929D02*
D03*
X1574016D02*
D03*
D30*
X1914173Y102362D02*
D03*
X1574016D02*
D03*
D31*
X1881102Y720472D02*
D03*
D32*
X1781102D02*
D03*
X1681102D02*
D03*
X1581102D02*
D03*
X1481102D02*
D03*
D33*
X600000Y669680D02*
D03*
X700000D02*
D03*
X650000D02*
D03*
D34*
X385827Y456693D02*
D03*
X476378Y519291D02*
D03*
X535433Y137795D02*
D03*
X751968Y35433D02*
D03*
X1304626Y433071D02*
D03*
X899114Y637795D02*
D03*
X798311Y602362D02*
D03*
X966535Y740158D02*
D03*
X901082D02*
D03*
X704724D02*
D03*
Y602362D02*
D03*
X770177Y740158D02*
D03*
X835630D02*
D03*
X964567Y637795D02*
D03*
X433071Y389764D02*
D03*
X350394D02*
D03*
X403543Y247638D02*
D03*
X960630Y539370D02*
D03*
X755905Y492126D02*
D03*
X795276Y519685D02*
D03*
X1035433Y578740D02*
D03*
X1472441Y448819D02*
D03*
X1606299Y456693D02*
D03*
X1740158Y515748D02*
D03*
X641535Y519488D02*
D03*
X566929Y429134D02*
D03*
X948819Y145669D02*
D03*
X903149Y236220D02*
D03*
X783465Y137795D02*
D03*
X403543Y185433D02*
D03*
X1039370Y137795D02*
D03*
X1838583Y326772D02*
D03*
X1649606D02*
D03*
X519685Y228346D02*
D03*
Y267716D02*
D03*
D35*
X618110Y291339D02*
D03*
X661417D02*
D03*
X704724D02*
D03*
X618110Y248031D02*
D03*
X661417D02*
D03*
X704724D02*
D03*
X618110Y204724D02*
D03*
X661417D02*
D03*
X704724D02*
D03*
%TF.MD5,f352d9dfa62616ad521525aa6aab6644*%
M02*
