%TF.GenerationSoftware,Altium Limited,Altium Designer,23.11.1 (41)*%
G04 Layer_Physical_Order=1*
G04 Layer_Color=255*
%FSLAX26Y26*%
%MOIN*%
%TF.SameCoordinates,9526E2AF-B100-4743-A6B5-6A4C7E8B4C09*%
%TF.FilePolarity,Positive*%
%TF.FileFunction,Copper,L1,Top,Signal*%
%TF.Part,Single*%
G01*
G75*
%TA.AperFunction,SMDPad,CuDef*%
%ADD10R,0.011811X0.045276*%
%ADD11R,0.023622X0.045276*%
%ADD12R,0.035433X0.027559*%
%ADD13R,0.027559X0.035433*%
%ADD14R,0.023622X0.043307*%
%ADD15R,0.051181X0.039370*%
%ADD16R,0.023622X0.043307*%
%ADD17O,0.029528X0.009842*%
%ADD18O,0.009842X0.029528*%
%ADD19R,0.137795X0.149606*%
%ADD20R,0.062992X0.035433*%
%ADD21R,0.029528X0.033465*%
%ADD22R,0.070866X0.015748*%
%TA.AperFunction,Conductor*%
%ADD23C,0.009842*%
%ADD24C,0.019685*%
%ADD25C,0.011811*%
%ADD26C,0.007512*%
%ADD27C,0.007874*%
%TA.AperFunction,ComponentPad*%
%ADD28C,0.025591*%
%ADD29O,0.041339X0.082677*%
%ADD30O,0.039370X0.078740*%
%ADD31R,0.059055X0.059055*%
%ADD32C,0.059055*%
%ADD33O,0.043622X0.088976*%
%TA.AperFunction,ViaPad*%
%ADD34C,0.031496*%
%ADD35C,0.027559*%
G36*
X116117Y198819D02*
X45391D01*
Y100394D01*
X116117D01*
Y198819D01*
D02*
G37*
G36*
X984252Y733268D02*
X974409D01*
Y695866D01*
Y658465D01*
X984252D01*
Y611315D01*
X984158D01*
Y586614D01*
X944976D01*
Y611315D01*
X909354D01*
Y586614D01*
X678740D01*
Y588583D01*
X629921D01*
Y614224D01*
X634921Y616856D01*
X640158Y614688D01*
Y669680D01*
Y724673D01*
X634921Y722504D01*
X629921Y725136D01*
Y767716D01*
X984252D01*
Y733268D01*
D02*
G37*
G36*
X1795250Y-522374D02*
X1795709Y-522440D01*
X1796300Y-522571D01*
X1797611Y-522833D01*
X1799055Y-523424D01*
X1799776Y-523752D01*
X1800498Y-524211D01*
X1801285Y-524670D01*
X1801941Y-525326D01*
X1802663Y-525982D01*
X1803253Y-526769D01*
X1803319Y-526835D01*
X1803384Y-526966D01*
X1803581Y-527228D01*
X1803778Y-527556D01*
X1803975Y-528016D01*
X1804303Y-528540D01*
X1804565Y-529131D01*
X1804893Y-529787D01*
X1805156Y-530574D01*
X1805484Y-531427D01*
X1805746Y-532345D01*
X1805943Y-533329D01*
X1806336Y-535428D01*
X1806402Y-536609D01*
X1806467Y-537790D01*
Y-537856D01*
Y-538118D01*
Y-538512D01*
X1806402Y-538971D01*
X1806336Y-539561D01*
X1806271Y-540283D01*
X1806205Y-541070D01*
X1806008Y-541857D01*
X1805615Y-543628D01*
X1805024Y-545465D01*
X1804631Y-546384D01*
X1804171Y-547236D01*
X1803581Y-548089D01*
X1802991Y-548811D01*
X1802925Y-548876D01*
X1802860Y-548942D01*
X1802663Y-549139D01*
X1802335Y-549401D01*
X1802007Y-549664D01*
X1801613Y-549992D01*
X1801154Y-550320D01*
X1800563Y-550648D01*
X1799317Y-551369D01*
X1797808Y-551960D01*
X1796956Y-552222D01*
X1796103Y-552419D01*
X1795184Y-552484D01*
X1794200Y-552550D01*
X1793741D01*
X1793282Y-552484D01*
X1792691Y-552419D01*
X1791970Y-552353D01*
X1791183Y-552156D01*
X1790330Y-551960D01*
X1789543Y-551697D01*
X1789477Y-551632D01*
X1789215Y-551566D01*
X1788821Y-551304D01*
X1788296Y-551041D01*
X1787706Y-550713D01*
X1787050Y-550254D01*
X1786459Y-549729D01*
X1785803Y-549139D01*
Y-562915D01*
X1774586D01*
Y-522964D01*
X1784951D01*
Y-527294D01*
X1785082Y-527163D01*
X1785344Y-526835D01*
X1785738Y-526376D01*
X1786263Y-525851D01*
X1786853Y-525195D01*
X1787509Y-524604D01*
X1788231Y-524080D01*
X1788887Y-523620D01*
X1789018Y-523555D01*
X1789346Y-523424D01*
X1789805Y-523227D01*
X1790461Y-522964D01*
X1791248Y-522702D01*
X1792167Y-522505D01*
X1793216Y-522374D01*
X1794266Y-522308D01*
X1794856D01*
X1795250Y-522374D01*
D02*
G37*
G36*
X1994739D02*
X1995396Y-522505D01*
X1996183Y-522702D01*
X1997101Y-522964D01*
X1998151Y-523358D01*
X1999200Y-523883D01*
X1995724Y-531755D01*
X1995658Y-531689D01*
X1995396Y-531624D01*
X1995068Y-531492D01*
X1994608Y-531296D01*
X1993624Y-531033D01*
X1993100Y-530968D01*
X1992640Y-530902D01*
X1992312D01*
X1991919Y-530968D01*
X1991394Y-531099D01*
X1990869Y-531361D01*
X1990344Y-531689D01*
X1989754Y-532148D01*
X1989295Y-532739D01*
X1989229Y-532870D01*
X1989164Y-533001D01*
X1989032Y-533264D01*
X1988901Y-533526D01*
X1988770Y-533920D01*
X1988573Y-534379D01*
X1988442Y-534904D01*
X1988311Y-535494D01*
X1988114Y-536216D01*
X1987983Y-536937D01*
X1987851Y-537856D01*
X1987720Y-538774D01*
X1987655Y-539824D01*
X1987589Y-541004D01*
Y-542251D01*
Y-551894D01*
X1976437D01*
Y-522964D01*
X1986802D01*
Y-527688D01*
X1986868Y-527622D01*
X1987064Y-527228D01*
X1987392Y-526704D01*
X1987786Y-526048D01*
X1988245Y-525326D01*
X1988770Y-524670D01*
X1989295Y-524014D01*
X1989885Y-523489D01*
X1989951Y-523424D01*
X1990148Y-523292D01*
X1990541Y-523096D01*
X1991000Y-522899D01*
X1991525Y-522702D01*
X1992181Y-522505D01*
X1992968Y-522374D01*
X1993821Y-522308D01*
X1994280D01*
X1994739Y-522374D01*
D02*
G37*
G36*
X1924351Y-553862D02*
Y-553928D01*
X1924285Y-554059D01*
X1924154Y-554387D01*
X1924023Y-554715D01*
X1923826Y-555108D01*
X1923629Y-555633D01*
X1923104Y-556748D01*
X1922514Y-557929D01*
X1921858Y-559110D01*
X1921136Y-560160D01*
X1920743Y-560619D01*
X1920349Y-561012D01*
X1920218Y-561144D01*
X1920021Y-561275D01*
X1919824Y-561406D01*
X1919496Y-561603D01*
X1919103Y-561865D01*
X1918709Y-562062D01*
X1918184Y-562324D01*
X1917594Y-562587D01*
X1916938Y-562784D01*
X1916216Y-563046D01*
X1915429Y-563243D01*
X1914576Y-563374D01*
X1913658Y-563505D01*
X1912608Y-563636D01*
X1911100D01*
X1910509Y-563571D01*
X1909722D01*
X1908672Y-563505D01*
X1907426Y-563374D01*
X1905917Y-563177D01*
X1904146Y-562980D01*
X1903293Y-555240D01*
X1903424D01*
X1903687Y-555371D01*
X1904211Y-555502D01*
X1904868Y-555633D01*
X1905655Y-555764D01*
X1906507Y-555896D01*
X1907557Y-555961D01*
X1908607Y-556027D01*
X1908935D01*
X1909263Y-555961D01*
X1909722Y-555896D01*
X1910772Y-555633D01*
X1911296Y-555436D01*
X1911755Y-555108D01*
X1911821Y-555043D01*
X1911952Y-554912D01*
X1912215Y-554715D01*
X1912477Y-554387D01*
X1912805Y-553928D01*
X1913199Y-553337D01*
X1913527Y-552681D01*
X1913855Y-551894D01*
X1901719Y-522964D01*
X1913396D01*
X1919365Y-542251D01*
X1924876Y-522964D01*
X1935831D01*
X1924351Y-553862D01*
D02*
G37*
G36*
X1884991Y-522374D02*
X1886303Y-522440D01*
X1887615Y-522571D01*
X1888992Y-522702D01*
X1890173Y-522899D01*
X1890304D01*
X1890698Y-523030D01*
X1891223Y-523161D01*
X1891944Y-523424D01*
X1892732Y-523752D01*
X1893584Y-524145D01*
X1894437Y-524670D01*
X1895224Y-525260D01*
X1895290Y-525326D01*
X1895487Y-525457D01*
X1895749Y-525785D01*
X1896077Y-526113D01*
X1896405Y-526638D01*
X1896799Y-527228D01*
X1897127Y-527950D01*
X1897455Y-528737D01*
X1897520Y-528803D01*
X1897586Y-529131D01*
X1897717Y-529524D01*
X1897914Y-530115D01*
X1898045Y-530771D01*
X1898176Y-531492D01*
X1898242Y-532214D01*
X1898307Y-533001D01*
Y-545793D01*
Y-545859D01*
Y-546121D01*
Y-546515D01*
Y-546974D01*
X1898373Y-548024D01*
X1898439Y-548548D01*
X1898504Y-549008D01*
Y-549073D01*
X1898570Y-549204D01*
X1898636Y-549467D01*
X1898767Y-549795D01*
X1898898Y-550188D01*
X1899095Y-550713D01*
X1899357Y-551238D01*
X1899685Y-551894D01*
X1889255D01*
Y-551828D01*
X1889189Y-551697D01*
X1888927Y-551238D01*
X1888664Y-550713D01*
X1888467Y-550254D01*
Y-550123D01*
X1888336Y-549795D01*
X1888205Y-549204D01*
X1888139Y-548811D01*
X1888074Y-548352D01*
X1888008Y-548417D01*
X1887680Y-548680D01*
X1887287Y-549073D01*
X1886696Y-549532D01*
X1886040Y-549992D01*
X1885319Y-550516D01*
X1884532Y-550976D01*
X1883744Y-551369D01*
X1883613Y-551435D01*
X1883219Y-551566D01*
X1882629Y-551763D01*
X1881776Y-551960D01*
X1880792Y-552156D01*
X1879611Y-552353D01*
X1878300Y-552484D01*
X1876856Y-552550D01*
X1876332D01*
X1876004Y-552484D01*
X1875544D01*
X1875085Y-552419D01*
X1873904Y-552222D01*
X1872658Y-551960D01*
X1871346Y-551566D01*
X1870100Y-550976D01*
X1868984Y-550188D01*
X1868853Y-550057D01*
X1868591Y-549729D01*
X1868131Y-549204D01*
X1867672Y-548548D01*
X1867148Y-547696D01*
X1866688Y-546646D01*
X1866426Y-545531D01*
X1866295Y-544284D01*
Y-544219D01*
Y-544153D01*
Y-543760D01*
X1866426Y-543104D01*
X1866557Y-542382D01*
X1866754Y-541529D01*
X1867082Y-540611D01*
X1867541Y-539692D01*
X1868197Y-538840D01*
X1868263Y-538774D01*
X1868591Y-538512D01*
X1869116Y-538118D01*
X1869837Y-537659D01*
X1870821Y-537134D01*
X1871411Y-536872D01*
X1872068Y-536609D01*
X1872789Y-536347D01*
X1873576Y-536150D01*
X1874429Y-535888D01*
X1875348Y-535691D01*
X1875413D01*
X1875610Y-535625D01*
X1875938Y-535560D01*
X1876332Y-535494D01*
X1876856Y-535363D01*
X1877447Y-535297D01*
X1878759Y-535035D01*
X1880071Y-534707D01*
X1881448Y-534444D01*
X1882039Y-534313D01*
X1882629Y-534182D01*
X1883088Y-534051D01*
X1883482Y-533985D01*
X1883547D01*
X1883810Y-533920D01*
X1884204Y-533788D01*
X1884728Y-533592D01*
X1885319Y-533395D01*
X1885975Y-533198D01*
X1887484Y-532608D01*
Y-532542D01*
Y-532280D01*
X1887418Y-531952D01*
X1887352Y-531492D01*
X1887156Y-530574D01*
X1886893Y-530115D01*
X1886631Y-529787D01*
X1886565Y-529721D01*
X1886434Y-529656D01*
X1886237Y-529524D01*
X1885909Y-529328D01*
X1885515Y-529196D01*
X1884991Y-529065D01*
X1884335Y-529000D01*
X1883613Y-528934D01*
X1883154D01*
X1882695Y-529000D01*
X1882039Y-529065D01*
X1880727Y-529328D01*
X1880071Y-529524D01*
X1879480Y-529852D01*
X1879415D01*
X1879284Y-529984D01*
X1879087Y-530180D01*
X1878890Y-530377D01*
X1878628Y-530771D01*
X1878300Y-531164D01*
X1878037Y-531689D01*
X1877775Y-532345D01*
X1867148Y-531230D01*
Y-531099D01*
X1867279Y-530771D01*
X1867410Y-530246D01*
X1867607Y-529656D01*
X1867803Y-528934D01*
X1868131Y-528212D01*
X1868459Y-527556D01*
X1868853Y-526900D01*
X1868919Y-526835D01*
X1869050Y-526638D01*
X1869312Y-526310D01*
X1869706Y-525916D01*
X1870165Y-525523D01*
X1870690Y-525064D01*
X1871346Y-524604D01*
X1872133Y-524145D01*
X1872199Y-524080D01*
X1872396Y-524014D01*
X1872724Y-523817D01*
X1873248Y-523686D01*
X1873839Y-523424D01*
X1874560Y-523227D01*
X1875413Y-523030D01*
X1876332Y-522833D01*
X1876463D01*
X1876791Y-522768D01*
X1877315Y-522636D01*
X1878037Y-522571D01*
X1878956Y-522440D01*
X1879874Y-522374D01*
X1880989Y-522308D01*
X1883876D01*
X1884991Y-522374D01*
D02*
G37*
G36*
X1843466Y-542054D02*
X1862818D01*
Y-551894D01*
X1831133D01*
Y-511944D01*
X1843466D01*
Y-542054D01*
D02*
G37*
G36*
X1732405Y-521784D02*
X1719810D01*
Y-551894D01*
X1707477D01*
Y-521784D01*
X1694882D01*
Y-511944D01*
X1732405D01*
Y-521784D01*
D02*
G37*
G36*
X1955576Y-522374D02*
X1956167D01*
X1956823Y-522440D01*
X1957544Y-522571D01*
X1959119Y-522768D01*
X1960759Y-523096D01*
X1962333Y-523555D01*
X1963776Y-524211D01*
X1963842D01*
X1963908Y-524276D01*
X1964104Y-524408D01*
X1964367Y-524539D01*
X1965023Y-524998D01*
X1965810Y-525588D01*
X1966728Y-526376D01*
X1967647Y-527360D01*
X1968499Y-528475D01*
X1969287Y-529721D01*
Y-529787D01*
X1969352Y-529852D01*
X1969484Y-530115D01*
X1969615Y-530377D01*
X1969746Y-530705D01*
X1969877Y-531164D01*
X1970074Y-531624D01*
X1970271Y-532214D01*
X1970402Y-532804D01*
X1970599Y-533526D01*
X1970927Y-535100D01*
X1971123Y-536937D01*
X1971189Y-538971D01*
Y-540217D01*
X1948951D01*
Y-540348D01*
X1949016Y-540676D01*
X1949082Y-541136D01*
X1949213Y-541726D01*
X1949410Y-542382D01*
X1949672Y-543038D01*
X1949935Y-543694D01*
X1950328Y-544219D01*
X1950394Y-544284D01*
X1950656Y-544481D01*
X1950984Y-544809D01*
X1951444Y-545137D01*
X1952100Y-545465D01*
X1952821Y-545793D01*
X1953608Y-545990D01*
X1954527Y-546056D01*
X1954789D01*
X1955117Y-545990D01*
X1955511Y-545924D01*
X1955970Y-545859D01*
X1956495Y-545728D01*
X1957085Y-545531D01*
X1957610Y-545268D01*
X1957676D01*
X1957741Y-545137D01*
X1957938Y-545006D01*
X1958200Y-544809D01*
X1958528Y-544612D01*
X1958856Y-544284D01*
X1959184Y-543891D01*
X1959578Y-543432D01*
X1970533Y-544416D01*
Y-544481D01*
X1970402Y-544612D01*
X1970271Y-544809D01*
X1970074Y-545137D01*
X1969549Y-545924D01*
X1968828Y-546843D01*
X1967909Y-547892D01*
X1966860Y-548942D01*
X1965744Y-549926D01*
X1964432Y-550713D01*
X1964367D01*
X1964301Y-550779D01*
X1964039Y-550910D01*
X1963776Y-550976D01*
X1963383Y-551107D01*
X1962989Y-551304D01*
X1962464Y-551435D01*
X1961874Y-551632D01*
X1961152Y-551828D01*
X1960431Y-551960D01*
X1959578Y-552091D01*
X1958659Y-552288D01*
X1957676Y-552353D01*
X1956626Y-552484D01*
X1955511Y-552550D01*
X1953411D01*
X1952887Y-552484D01*
X1952362D01*
X1951050Y-552353D01*
X1949607Y-552156D01*
X1948098Y-551894D01*
X1946589Y-551500D01*
X1945277Y-550976D01*
X1945211D01*
X1945146Y-550910D01*
X1944752Y-550648D01*
X1944096Y-550254D01*
X1943375Y-549729D01*
X1942522Y-549008D01*
X1941603Y-548155D01*
X1940685Y-547105D01*
X1939832Y-545859D01*
Y-545793D01*
X1939767Y-545728D01*
X1939636Y-545531D01*
X1939504Y-545203D01*
X1939307Y-544875D01*
X1939176Y-544481D01*
X1938783Y-543497D01*
X1938323Y-542251D01*
X1937995Y-540873D01*
X1937733Y-539233D01*
X1937668Y-537528D01*
Y-537462D01*
Y-537200D01*
Y-536872D01*
X1937733Y-536412D01*
X1937799Y-535822D01*
X1937930Y-535166D01*
X1938061Y-534379D01*
X1938192Y-533592D01*
X1938717Y-531820D01*
X1939045Y-530902D01*
X1939504Y-529984D01*
X1939964Y-529065D01*
X1940554Y-528212D01*
X1941210Y-527294D01*
X1941997Y-526507D01*
X1942063Y-526441D01*
X1942194Y-526310D01*
X1942456Y-526113D01*
X1942784Y-525851D01*
X1943244Y-525523D01*
X1943768Y-525195D01*
X1944424Y-524801D01*
X1945146Y-524408D01*
X1945933Y-524014D01*
X1946851Y-523620D01*
X1947835Y-523292D01*
X1948885Y-522964D01*
X1950066Y-522702D01*
X1951312Y-522505D01*
X1952624Y-522374D01*
X1954002Y-522308D01*
X1955052D01*
X1955576Y-522374D01*
D02*
G37*
G36*
X1753856D02*
X1754578Y-522440D01*
X1755431Y-522571D01*
X1756349Y-522702D01*
X1757333Y-522964D01*
X1758383Y-523227D01*
X1759498Y-523555D01*
X1760547Y-523948D01*
X1761663Y-524408D01*
X1762712Y-524998D01*
X1763762Y-525720D01*
X1764746Y-526441D01*
X1765599Y-527360D01*
X1765664Y-527425D01*
X1765730Y-527556D01*
X1765927Y-527753D01*
X1766189Y-528081D01*
X1766451Y-528475D01*
X1766714Y-528934D01*
X1767042Y-529524D01*
X1767436Y-530115D01*
X1767764Y-530836D01*
X1768091Y-531624D01*
X1768616Y-533329D01*
X1769075Y-535232D01*
X1769141Y-536281D01*
X1769207Y-537396D01*
Y-537462D01*
Y-537659D01*
Y-538052D01*
X1769141Y-538512D01*
X1769075Y-539036D01*
X1768944Y-539692D01*
X1768813Y-540414D01*
X1768682Y-541267D01*
X1768091Y-542972D01*
X1767764Y-543891D01*
X1767304Y-544809D01*
X1766845Y-545728D01*
X1766189Y-546580D01*
X1765533Y-547433D01*
X1764746Y-548286D01*
X1764680Y-548352D01*
X1764549Y-548483D01*
X1764287Y-548680D01*
X1763959Y-548942D01*
X1763499Y-549270D01*
X1762909Y-549664D01*
X1762253Y-549992D01*
X1761532Y-550385D01*
X1760744Y-550844D01*
X1759760Y-551172D01*
X1758776Y-551566D01*
X1757661Y-551894D01*
X1756480Y-552156D01*
X1755234Y-552353D01*
X1753922Y-552484D01*
X1752479Y-552550D01*
X1751823D01*
X1751298Y-552484D01*
X1750707Y-552419D01*
X1750052Y-552353D01*
X1749264Y-552288D01*
X1748411Y-552091D01*
X1746640Y-551697D01*
X1744738Y-551107D01*
X1743820Y-550713D01*
X1742835Y-550188D01*
X1741983Y-549664D01*
X1741130Y-549073D01*
X1741064Y-549008D01*
X1740933Y-548876D01*
X1740671Y-548614D01*
X1740343Y-548286D01*
X1739883Y-547827D01*
X1739490Y-547302D01*
X1738965Y-546712D01*
X1738506Y-545990D01*
X1738047Y-545203D01*
X1737522Y-544350D01*
X1737128Y-543366D01*
X1736735Y-542316D01*
X1736341Y-541267D01*
X1736079Y-540086D01*
X1735947Y-538840D01*
X1735882Y-537528D01*
Y-537462D01*
Y-537265D01*
Y-536872D01*
X1735947Y-536412D01*
X1736013Y-535888D01*
X1736144Y-535232D01*
X1736275Y-534444D01*
X1736472Y-533657D01*
X1736997Y-531952D01*
X1737325Y-531033D01*
X1737784Y-530115D01*
X1738309Y-529196D01*
X1738899Y-528344D01*
X1739555Y-527491D01*
X1740343Y-526638D01*
X1740408Y-526572D01*
X1740540Y-526441D01*
X1740802Y-526244D01*
X1741130Y-525982D01*
X1741589Y-525654D01*
X1742179Y-525260D01*
X1742770Y-524867D01*
X1743557Y-524473D01*
X1744344Y-524080D01*
X1745263Y-523686D01*
X1746247Y-523292D01*
X1747296Y-522964D01*
X1748477Y-522702D01*
X1749724Y-522505D01*
X1751035Y-522374D01*
X1752413Y-522308D01*
X1753266D01*
X1753856Y-522374D01*
D02*
G37*
%LPC*%
G36*
X954724Y733268D02*
X937008D01*
Y723520D01*
X909354D01*
Y711527D01*
X877654D01*
Y718598D01*
X838095D01*
Y671165D01*
X841721D01*
Y659543D01*
X838095D01*
Y612110D01*
X877654D01*
Y659543D01*
X874027D01*
Y671165D01*
X877654D01*
Y679221D01*
X909354D01*
Y668213D01*
X937008D01*
Y658465D01*
X954724D01*
Y695866D01*
Y733268D01*
D02*
G37*
G36*
X659842Y724673D02*
Y669680D01*
Y614688D01*
X666956Y617634D01*
X673980Y623023D01*
X675831Y625436D01*
X682240Y625575D01*
X685975Y622710D01*
X692740Y619908D01*
X700000Y618952D01*
X707260Y619908D01*
X714025Y622710D01*
X719835Y627168D01*
X724293Y632977D01*
X727095Y639743D01*
X728051Y647003D01*
Y653527D01*
X740546D01*
X746728Y654757D01*
X751968Y658258D01*
X761142Y667432D01*
X766142Y665361D01*
Y645669D01*
X825197D01*
Y669291D01*
X819673D01*
X815449Y671165D01*
X815449Y674291D01*
Y718598D01*
X775890D01*
Y703161D01*
X757874D01*
X751692Y701931D01*
X746452Y698430D01*
X733855Y685833D01*
X728051D01*
Y692357D01*
X727095Y699617D01*
X724293Y706383D01*
X719835Y712192D01*
X714025Y716650D01*
X707260Y719452D01*
X700000Y720408D01*
X692740Y719452D01*
X685975Y716650D01*
X682240Y713785D01*
X675831Y713924D01*
X673980Y716337D01*
X666956Y721726D01*
X659842Y724673D01*
D02*
G37*
G36*
X825197Y625984D02*
X805512D01*
Y602362D01*
X825197D01*
Y625984D01*
D02*
G37*
G36*
X785827D02*
X766142D01*
Y602362D01*
X785827D01*
Y625984D01*
D02*
G37*
G36*
X1790658Y-530443D02*
X1790330D01*
X1789936Y-530508D01*
X1789411Y-530640D01*
X1788887Y-530836D01*
X1788296Y-531164D01*
X1787706Y-531558D01*
X1787116Y-532148D01*
X1787050Y-532214D01*
X1786919Y-532476D01*
X1786656Y-532870D01*
X1786394Y-533460D01*
X1786131Y-534182D01*
X1785869Y-535100D01*
X1785738Y-536216D01*
X1785672Y-537528D01*
Y-537593D01*
Y-537659D01*
Y-537856D01*
Y-538118D01*
X1785738Y-538708D01*
X1785869Y-539496D01*
X1786000Y-540283D01*
X1786263Y-541136D01*
X1786656Y-541923D01*
X1787116Y-542644D01*
X1787181Y-542710D01*
X1787378Y-542907D01*
X1787706Y-543169D01*
X1788100Y-543432D01*
X1788624Y-543760D01*
X1789280Y-544022D01*
X1790002Y-544219D01*
X1790789Y-544284D01*
X1791117D01*
X1791511Y-544219D01*
X1791970Y-544088D01*
X1792429Y-543891D01*
X1793020Y-543628D01*
X1793544Y-543235D01*
X1794069Y-542710D01*
X1794135Y-542644D01*
X1794266Y-542382D01*
X1794463Y-541988D01*
X1794725Y-541464D01*
X1794987Y-540676D01*
X1795184Y-539758D01*
X1795315Y-538643D01*
X1795381Y-537331D01*
Y-537265D01*
Y-537200D01*
Y-537003D01*
Y-536740D01*
X1795315Y-536150D01*
X1795184Y-535363D01*
X1795053Y-534510D01*
X1794791Y-533657D01*
X1794463Y-532870D01*
X1794004Y-532148D01*
X1793938Y-532083D01*
X1793741Y-531886D01*
X1793479Y-531624D01*
X1793085Y-531296D01*
X1792560Y-530968D01*
X1792035Y-530705D01*
X1791380Y-530508D01*
X1790658Y-530443D01*
D02*
G37*
G36*
X1887484Y-538184D02*
X1887352Y-538249D01*
X1887090Y-538315D01*
X1886631Y-538512D01*
X1885975Y-538708D01*
X1885253Y-538905D01*
X1884466Y-539168D01*
X1882629Y-539627D01*
X1882563D01*
X1882498Y-539692D01*
X1882104Y-539758D01*
X1881514Y-539955D01*
X1880858Y-540217D01*
X1880136Y-540480D01*
X1879415Y-540742D01*
X1878824Y-541070D01*
X1878365Y-541398D01*
X1878300Y-541464D01*
X1878234Y-541529D01*
X1878103Y-541726D01*
X1877906Y-541988D01*
X1877578Y-542644D01*
X1877512Y-543038D01*
X1877447Y-543432D01*
Y-543497D01*
Y-543628D01*
X1877512Y-543891D01*
X1877578Y-544219D01*
X1877840Y-544875D01*
X1878037Y-545268D01*
X1878365Y-545596D01*
X1878431D01*
X1878562Y-545728D01*
X1878759Y-545859D01*
X1879021Y-545990D01*
X1879415Y-546121D01*
X1879874Y-546252D01*
X1880464Y-546318D01*
X1881055Y-546384D01*
X1881383D01*
X1881711Y-546318D01*
X1882170Y-546252D01*
X1882695Y-546187D01*
X1883285Y-545990D01*
X1883876Y-545793D01*
X1884466Y-545531D01*
X1884532Y-545465D01*
X1884728Y-545334D01*
X1884991Y-545203D01*
X1885384Y-544940D01*
X1886106Y-544219D01*
X1886499Y-543825D01*
X1886762Y-543366D01*
X1886828Y-543300D01*
X1886893Y-543104D01*
X1887024Y-542841D01*
X1887156Y-542448D01*
X1887287Y-541923D01*
X1887352Y-541398D01*
X1887484Y-540676D01*
Y-539955D01*
Y-538184D01*
D02*
G37*
G36*
X1954461Y-528868D02*
X1954002D01*
X1953543Y-529000D01*
X1952952Y-529131D01*
X1952296Y-529393D01*
X1951575Y-529787D01*
X1950853Y-530312D01*
X1950197Y-531033D01*
X1950131Y-531099D01*
X1950066Y-531296D01*
X1949869Y-531558D01*
X1949672Y-532017D01*
X1949476Y-532542D01*
X1949279Y-533198D01*
X1949082Y-533985D01*
X1948951Y-534904D01*
X1959906D01*
Y-534838D01*
Y-534772D01*
X1959840Y-534379D01*
X1959709Y-533788D01*
X1959578Y-533132D01*
X1959315Y-532345D01*
X1959053Y-531624D01*
X1958659Y-530902D01*
X1958135Y-530312D01*
X1958069Y-530246D01*
X1957872Y-530115D01*
X1957610Y-529852D01*
X1957151Y-529590D01*
X1956626Y-529328D01*
X1956035Y-529065D01*
X1955248Y-528934D01*
X1954461Y-528868D01*
D02*
G37*
G36*
X1752610Y-529918D02*
X1752216D01*
X1751757Y-529984D01*
X1751232Y-530180D01*
X1750576Y-530377D01*
X1749920Y-530705D01*
X1749264Y-531164D01*
X1748608Y-531820D01*
X1748543Y-531886D01*
X1748346Y-532148D01*
X1748083Y-532608D01*
X1747821Y-533264D01*
X1747559Y-534051D01*
X1747296Y-535035D01*
X1747100Y-536216D01*
X1747034Y-537528D01*
Y-537593D01*
Y-537724D01*
Y-537921D01*
Y-538184D01*
X1747100Y-538840D01*
X1747231Y-539692D01*
X1747428Y-540611D01*
X1747690Y-541595D01*
X1748018Y-542448D01*
X1748543Y-543235D01*
X1748608Y-543300D01*
X1748805Y-543497D01*
X1749199Y-543825D01*
X1749658Y-544153D01*
X1750183Y-544481D01*
X1750904Y-544809D01*
X1751691Y-545006D01*
X1752544Y-545072D01*
X1752938D01*
X1753397Y-545006D01*
X1753922Y-544875D01*
X1754578Y-544612D01*
X1755234Y-544350D01*
X1755890Y-543891D01*
X1756480Y-543300D01*
X1756546Y-543235D01*
X1756743Y-542972D01*
X1757005Y-542513D01*
X1757267Y-541857D01*
X1757530Y-541070D01*
X1757792Y-540020D01*
X1757989Y-538840D01*
X1758055Y-537396D01*
Y-537331D01*
Y-537200D01*
Y-537068D01*
Y-536806D01*
X1757989Y-536084D01*
X1757858Y-535297D01*
X1757661Y-534379D01*
X1757399Y-533460D01*
X1757005Y-532608D01*
X1756480Y-531820D01*
X1756415Y-531755D01*
X1756218Y-531492D01*
X1755890Y-531230D01*
X1755431Y-530836D01*
X1754840Y-530508D01*
X1754184Y-530180D01*
X1753463Y-529984D01*
X1752610Y-529918D01*
D02*
G37*
%LPD*%
D10*
X1675197Y289567D02*
D03*
X1694882D02*
D03*
X1714567D02*
D03*
X1812992D02*
D03*
X1793307D02*
D03*
X1773622D02*
D03*
X1734252D02*
D03*
X1753937D02*
D03*
D11*
X1838583D02*
D03*
X1649606D02*
D03*
X1870079D02*
D03*
X1618110D02*
D03*
D12*
X1133858Y608662D02*
D03*
Y670866D02*
D03*
X456693Y622441D02*
D03*
Y684646D02*
D03*
X303150Y389370D02*
D03*
Y327165D02*
D03*
X480315Y389370D02*
D03*
Y327165D02*
D03*
X582677Y39764D02*
D03*
Y101969D02*
D03*
X521654Y100000D02*
D03*
Y37795D02*
D03*
X462598Y100000D02*
D03*
Y37795D02*
D03*
X641732Y101969D02*
D03*
Y39764D02*
D03*
X1442913Y451181D02*
D03*
Y513386D02*
D03*
X1501968Y451181D02*
D03*
Y513386D02*
D03*
X1769685Y513386D02*
D03*
Y451181D02*
D03*
X1710630Y513386D02*
D03*
Y451181D02*
D03*
X433071Y185433D02*
D03*
Y247638D02*
D03*
X314961Y185433D02*
D03*
Y247638D02*
D03*
X374016Y185433D02*
D03*
Y247638D02*
D03*
X1251968Y670866D02*
D03*
Y608662D02*
D03*
X1192913Y670866D02*
D03*
Y608662D02*
D03*
X1072835Y608662D02*
D03*
Y670866D02*
D03*
X515748Y684646D02*
D03*
Y622441D02*
D03*
X700787Y453150D02*
D03*
Y515354D02*
D03*
X446851Y519291D02*
D03*
Y457087D02*
D03*
X505906D02*
D03*
Y519291D02*
D03*
X1500000Y161024D02*
D03*
Y98819D02*
D03*
Y248425D02*
D03*
Y310630D02*
D03*
D13*
X362599Y331102D02*
D03*
X424803D02*
D03*
X905118Y86614D02*
D03*
X842913D02*
D03*
X795669Y694882D02*
D03*
X857874D02*
D03*
X795669Y635827D02*
D03*
X857874D02*
D03*
X1124409Y521653D02*
D03*
X1186614D02*
D03*
Y462598D02*
D03*
X1124409D02*
D03*
X903149Y206693D02*
D03*
X840945D02*
D03*
X842913Y145669D02*
D03*
X905118D02*
D03*
X840945Y324803D02*
D03*
X903149D02*
D03*
X840945Y265748D02*
D03*
X903149D02*
D03*
X649213Y555118D02*
D03*
X587008D02*
D03*
D14*
X1001968Y695866D02*
D03*
X964567D02*
D03*
X927165D02*
D03*
Y583662D02*
D03*
X1001968D02*
D03*
D15*
X1374016Y442126D02*
D03*
Y518504D02*
D03*
X1838582Y444095D02*
D03*
Y520473D02*
D03*
D16*
X1644102Y537402D02*
D03*
Y427166D02*
D03*
X1606701D02*
D03*
X1569299Y537402D02*
D03*
Y427166D02*
D03*
D17*
X564961Y316929D02*
D03*
Y297244D02*
D03*
Y277559D02*
D03*
Y257874D02*
D03*
Y238189D02*
D03*
Y218504D02*
D03*
Y198819D02*
D03*
Y179134D02*
D03*
X757874D02*
D03*
Y198819D02*
D03*
Y218504D02*
D03*
Y238189D02*
D03*
Y257874D02*
D03*
Y277559D02*
D03*
Y297244D02*
D03*
Y316929D02*
D03*
D18*
X592520Y151575D02*
D03*
X612205D02*
D03*
X631890D02*
D03*
X651575D02*
D03*
X671260D02*
D03*
X690945D02*
D03*
X710630D02*
D03*
X730315D02*
D03*
Y344488D02*
D03*
X710630D02*
D03*
X690945D02*
D03*
X671260D02*
D03*
X651575D02*
D03*
X631890D02*
D03*
X612205D02*
D03*
X592520D02*
D03*
D19*
X661417Y248031D02*
D03*
D20*
X1035433Y39370D02*
D03*
Y200787D02*
D03*
Y253937D02*
D03*
Y415354D02*
D03*
D21*
X597441Y430118D02*
D03*
X638779D02*
D03*
X597441Y483268D02*
D03*
X638779D02*
D03*
D22*
X80709Y196850D02*
D03*
Y318898D02*
D03*
D23*
X1007874Y577756D02*
X1187148D01*
X1192913Y583521D02*
Y608662D01*
X1187148Y577756D02*
X1192913Y583521D01*
X1251968Y574803D02*
Y608662D01*
X1239079Y561913D02*
X1251968Y574803D01*
X1085535Y561913D02*
X1239079D01*
X507874Y433071D02*
Y455118D01*
X505906Y457087D02*
X507874Y455118D01*
Y433071D02*
X513780Y427165D01*
Y383858D02*
Y427165D01*
X690945Y108268D02*
X712598Y86614D01*
X842913D01*
X690945Y108268D02*
Y151575D01*
X781793Y136124D02*
X783465Y137795D01*
X776027Y110236D02*
X781793Y116002D01*
X716396Y110236D02*
X776027D01*
X781793Y116002D02*
Y136124D01*
X710630Y116002D02*
Y151575D01*
Y116002D02*
X716396Y110236D01*
X631890Y111811D02*
Y151575D01*
Y111811D02*
X641732Y101969D01*
X531496Y100984D02*
X581693D01*
X534449Y103937D02*
Y136811D01*
X535433Y137795D01*
X531496Y100984D02*
X534449Y103937D01*
X581693Y100984D02*
X582677Y101969D01*
X503937Y149606D02*
Y173228D01*
X462598Y100000D02*
X465951D01*
X474810Y120479D02*
X503937Y149606D01*
X465951Y100000D02*
X474810Y108858D01*
Y120479D01*
X503937Y173228D02*
X545370Y214661D01*
X551275D01*
X555118Y218504D01*
X564961D01*
X551932Y198819D02*
X564961D01*
X535433Y182320D02*
X551932Y198819D01*
X535433Y137795D02*
Y182320D01*
X450787Y297244D02*
X564961D01*
X960630Y539370D02*
X1062992D01*
X933071D02*
X960630D01*
X433071Y279528D02*
X450787Y297244D01*
X433071Y247638D02*
Y279528D01*
X1039370Y137795D02*
Y200787D01*
X1062992Y539370D02*
X1085535Y561913D01*
X927165Y545276D02*
X933071Y539370D01*
X927165Y545276D02*
Y583662D01*
X1001968D02*
X1007874Y577756D01*
X1694882Y226378D02*
Y289567D01*
X1669291Y200787D02*
X1694882Y226378D01*
X1515748Y200787D02*
X1669291D01*
X1500000Y216535D02*
Y248425D01*
Y216535D02*
X1515748Y200787D01*
X594488Y374016D02*
X606439D01*
X523622D02*
X594488D01*
X592520Y344488D02*
Y372047D01*
X594488Y374016D01*
X513780Y383858D02*
X523622Y374016D01*
X612205Y344488D02*
Y368250D01*
X606439Y374016D02*
X612205Y368250D01*
X446851Y457087D02*
X505906D01*
X960630Y157480D02*
Y236220D01*
X905118Y145669D02*
X948819D01*
X960630Y157480D01*
X978346Y253937D02*
X1035433D01*
X960630Y236220D02*
X978346Y253937D01*
X841929Y150591D02*
Y205708D01*
X810039Y158465D02*
X834055D01*
X841929Y150591D01*
X789370Y179134D02*
X810039Y158465D01*
X757874Y179134D02*
X789370D01*
X840945Y206693D02*
X841929Y205708D01*
X840945Y265748D02*
Y324803D01*
X838976Y263779D02*
X840945Y265748D01*
X811024Y263779D02*
X838976D01*
X803150Y255905D02*
X811024Y263779D01*
X803150Y208661D02*
Y255905D01*
X793307Y198819D02*
X803150Y208661D01*
X757874Y198819D02*
X793307D01*
X519685Y228346D02*
X525544D01*
X535387Y238189D02*
X564961D01*
X525544Y228346D02*
X535387Y238189D01*
X525544Y267716D02*
X535387Y257874D01*
X564961D01*
X519685Y267716D02*
X525544D01*
D24*
X1072835Y608662D02*
X1133858D01*
X456693Y622441D02*
X515748D01*
X452756Y680709D02*
X456693Y684646D01*
X385827Y637795D02*
X428740Y680709D01*
X385827Y456693D02*
Y637795D01*
X428740Y680709D02*
X452756D01*
X385827Y456693D02*
X386024Y456890D01*
X446654D02*
X446851Y457087D01*
X386024Y456890D02*
X446654D01*
X446851Y519291D02*
X505906D01*
X1376575Y515945D02*
X1499409D01*
X1072835Y670866D02*
X1329134D01*
X1303150Y433071D02*
Y496063D01*
X462598Y37795D02*
X521654D01*
X417043D02*
X462598D01*
X405512Y49327D02*
Y118110D01*
Y49327D02*
X417043Y37795D01*
X405512Y118110D02*
X425197Y137795D01*
X448819D01*
X476345Y165322D01*
Y233965D01*
X582677Y36614D02*
X750787D01*
X751968Y35433D01*
X903149Y391338D02*
X927165Y415354D01*
X1035433D01*
X903149Y324803D02*
Y391338D01*
X1303150Y496063D02*
X1325591Y518504D01*
X1374016D01*
X649606Y614173D02*
Y669286D01*
X650000Y669680D01*
X633858Y598425D02*
X649606Y614173D01*
X964567Y637795D02*
X1019685D01*
X798311Y600787D02*
X799606Y602082D01*
Y631890D01*
X795669Y635827D02*
X799606Y631890D01*
X403543Y247638D02*
X433071D01*
X374016D02*
X403543D01*
X433071D02*
X435212Y245497D01*
X464814D02*
X476345Y233965D01*
X435212Y245497D02*
X464814D01*
X314961Y247638D02*
X374016D01*
X650000Y669680D02*
X654580Y674260D01*
X962598Y697835D02*
X964567Y695866D01*
X570866Y598425D02*
X633858D01*
X550787Y618504D02*
X570866Y598425D01*
X448425Y684646D02*
X515748D01*
X1001968Y695866D02*
Y702756D01*
X515748Y622441D02*
X519685Y618504D01*
X550787D01*
X515748Y684646D02*
X588943D01*
X857874Y635827D02*
Y694882D01*
X858366Y695374D02*
X926673D01*
X857874Y694882D02*
X858366Y695374D01*
X926673D02*
X927165Y695866D01*
X740546Y669680D02*
X757874Y687008D01*
X795669Y690945D02*
Y694882D01*
X791732Y687008D02*
X795669Y690945D01*
X757874Y687008D02*
X791732D01*
X700000Y669680D02*
X740546D01*
X1044882Y612599D02*
X1068898D01*
X1072835Y608662D01*
X1019685Y637795D02*
X1044882Y612599D01*
X964567Y637795D02*
Y695866D01*
X1001968Y702756D02*
X1003937Y704724D01*
X1059335D01*
X1070866Y672835D02*
Y693193D01*
X1059335Y704724D02*
X1070866Y693193D01*
Y672835D02*
X1072835Y670866D01*
X1329134D02*
X1374016Y625984D01*
Y518504D02*
Y625984D01*
X1569299Y545276D02*
Y577173D01*
X1509842Y535713D02*
X1521374Y547244D01*
X1509842Y517323D02*
Y535713D01*
X1569299Y537402D02*
Y545276D01*
X1567331Y547244D02*
X1569299Y545276D01*
X1521374Y547244D02*
X1567331D01*
X1501968Y513386D02*
X1505905D01*
X1509842Y517323D01*
X1374016Y518504D02*
X1376575Y515945D01*
X1499409D02*
X1501968Y513386D01*
X1781102Y627559D02*
Y720472D01*
X1751968Y598425D02*
X1781102Y627559D01*
X1590551Y598425D02*
X1751968D01*
X1569299Y577173D02*
X1590551Y598425D01*
X1714173Y447638D02*
X1835039D01*
X1881102Y720472D02*
X1881890Y719685D01*
Y637795D02*
Y719685D01*
Y637795D02*
X1897638Y622047D01*
Y456693D02*
Y622047D01*
X1838582Y444095D02*
X1885040D01*
X1897638Y456693D01*
X1379134Y447244D02*
X1498031D01*
X1374016Y442126D02*
X1379134Y447244D01*
X1498031D02*
X1501968Y451181D01*
X1569299Y427166D02*
Y482685D01*
X1582677Y496063D01*
X1632571D01*
X1644102Y427166D02*
Y484532D01*
X1632571Y496063D02*
X1644102Y484532D01*
X1606299Y427567D02*
Y456693D01*
Y427567D02*
X1606701Y427166D01*
X1714173Y516929D02*
X1835039D01*
X1710630Y513386D02*
X1714173Y516929D01*
X1835039D02*
X1838582Y520473D01*
X1644102Y423228D02*
Y427166D01*
X1697130Y421260D02*
X1708661Y432791D01*
Y449213D01*
X1644102Y423228D02*
X1646071Y421260D01*
X1697130D01*
X1708661Y449213D02*
X1710630Y451181D01*
X1835039Y447638D02*
X1838582Y444095D01*
X1710630Y451181D02*
X1714173Y447638D01*
X1838582Y326772D02*
Y444094D01*
X1838582Y444095D02*
X1838582Y444094D01*
Y326772D02*
X1838583Y326772D01*
X1870079Y280216D02*
X1872047Y278248D01*
X1904171D02*
X1914173Y268245D01*
X1870079Y280216D02*
Y289567D01*
X1872047Y278248D02*
X1904171D01*
X1914173Y266929D02*
Y268245D01*
X1574016D02*
X1584018Y278248D01*
X1618110Y280216D02*
Y289567D01*
X1616142Y278248D02*
X1618110Y280216D01*
X1584018Y278248D02*
X1616142D01*
X1574016Y266929D02*
Y268245D01*
X645276Y551181D02*
X689256D01*
X700787Y539650D01*
Y515354D02*
Y539650D01*
X645275Y551181D02*
X645276Y551181D01*
X638779Y483268D02*
X643307Y487795D01*
X637795Y484252D02*
X638779Y483268D01*
X637795Y484252D02*
Y515748D01*
X645275Y523228D02*
Y551181D01*
X637795Y515748D02*
X645275Y523228D01*
X596949Y429626D02*
X597441Y430118D01*
X566929Y429134D02*
X567421Y429626D01*
X596949D01*
X903149Y265748D02*
Y324803D01*
Y206693D02*
Y265748D01*
X374016Y185433D02*
X433071D01*
X314961D02*
X374016D01*
X1838583Y289567D02*
Y326772D01*
X1649606Y289567D02*
Y326772D01*
D25*
X433071Y389764D02*
X433268Y389567D01*
X480118D02*
X480315Y389370D01*
X433268Y389567D02*
X480118D01*
X350197D02*
X350394Y389764D01*
X303150Y389370D02*
X303346Y389567D01*
X350197D01*
X897244Y78740D02*
X905118Y86614D01*
X897244Y62037D02*
Y78740D01*
X890325Y55118D02*
X897244Y62037D01*
X820848Y55118D02*
X890325D01*
X874016Y105344D02*
Y130005D01*
Y105344D02*
X880934Y98425D01*
X897244D02*
X905118Y90551D01*
X842913Y144798D02*
Y145669D01*
X905118Y86614D02*
Y90551D01*
X842913Y144798D02*
X850788Y136924D01*
X867097D02*
X874016Y130005D01*
X850788Y136924D02*
X867097D01*
X880934Y98425D02*
X897244D01*
X812879Y63087D02*
X820848Y55118D01*
X732153Y63087D02*
X812879D01*
X732058Y62992D02*
X732153Y63087D01*
X700787Y62992D02*
X732058D01*
X692913Y70866D02*
X700787Y62992D01*
X632987Y94094D02*
X640861Y101969D01*
X641732D01*
X632987Y77785D02*
Y94094D01*
X535433Y70866D02*
X692913D01*
X527559Y62992D02*
X535433Y70866D01*
X527559Y43701D02*
Y62992D01*
X521654Y37795D02*
X527559Y43701D01*
X744095Y35433D02*
X1031496D01*
X1500000Y98819D02*
X1570473D01*
X1574016Y102362D01*
X1569975Y281693D02*
X1575465Y287183D01*
X1516564Y281693D02*
X1569975D01*
X1503937Y294320D02*
Y306693D01*
Y294320D02*
X1516564Y281693D01*
X1500000Y310630D02*
X1503937Y306693D01*
X1031496Y35433D02*
X1035433Y39370D01*
D26*
X80709Y318898D02*
X362205D01*
X417323Y316929D02*
X564961D01*
X564515Y317375D02*
X564961Y316929D01*
X690945Y375984D02*
X795276Y480315D01*
Y519685D01*
X1716535Y362173D02*
X1736252D01*
X1288772D02*
X1716535D01*
X1714567Y289567D02*
X1716535Y291535D01*
Y362173D01*
X1751788Y291716D02*
Y346638D01*
X1736252Y362173D02*
X1751788Y346638D01*
X1295308Y377953D02*
X1748031D01*
X1769717Y289567D02*
Y356267D01*
Y263006D02*
Y289567D01*
X1748031Y377953D02*
X1769717Y356267D01*
X1232284Y418661D02*
X1288772Y362173D01*
X1751788Y291716D02*
X1753937Y289567D01*
X690945Y344488D02*
Y375984D01*
X1734252Y289567D02*
X1736401Y287418D01*
Y264762D02*
Y287418D01*
X1763884Y257173D02*
X1769717Y263006D01*
X1736401Y264762D02*
X1743990Y257173D01*
X1763884D01*
X1248063Y425197D02*
X1295308Y377953D01*
X1248063Y425197D02*
Y471087D01*
X1212598Y484236D02*
X1232284Y464551D01*
X1201038Y500016D02*
X1219135D01*
X1248063Y471087D01*
X1232284Y418661D02*
Y464551D01*
X1201038Y484236D02*
X1212598D01*
X1186614Y462598D02*
X1196638Y472622D01*
Y479835D01*
X1201038Y484236D01*
X1186614Y521653D02*
X1196638Y511630D01*
Y504416D02*
Y511630D01*
Y504416D02*
X1201038Y500016D01*
X728362Y367464D02*
X845135Y484236D01*
X712582Y356914D02*
Y374000D01*
X710630Y354961D02*
X712582Y356914D01*
X710630Y344488D02*
Y354961D01*
X730315Y344488D02*
Y354961D01*
X728362Y356914D02*
Y367464D01*
Y356914D02*
X730315Y354961D01*
X1114386Y472622D02*
X1124409Y462598D01*
X838598Y500016D02*
X1109985D01*
X1114386Y511630D02*
X1124409Y521653D01*
X845135Y484236D02*
X1109985D01*
X1114386Y479835D01*
Y504416D02*
Y511630D01*
X1109985Y500016D02*
X1114386Y504416D01*
Y472622D02*
Y479835D01*
X712582Y374000D02*
X838598Y500016D01*
D27*
X755905Y460310D02*
Y492126D01*
X1814961Y192913D02*
Y287598D01*
X1812992Y289567D02*
X1814961Y287598D01*
X1500000Y161024D02*
X1783071D01*
X1814961Y192913D01*
X671260Y375664D02*
X755905Y460310D01*
X671260Y344488D02*
Y375664D01*
X696457Y448819D02*
X700787Y453150D01*
X673228Y448819D02*
X696457D01*
X638779Y432087D02*
X649606Y442913D01*
X638779Y430118D02*
Y432087D01*
X649606Y442913D02*
X667323D01*
X673228Y448819D01*
X638779Y396654D02*
Y430118D01*
Y396654D02*
X651575Y383858D01*
Y344488D02*
Y383858D01*
X596457Y484252D02*
X597441Y483268D01*
X587008Y493701D02*
X596457Y484252D01*
X587008Y493701D02*
Y555118D01*
X539370Y472441D02*
X551181Y484252D01*
X539370Y401575D02*
Y472441D01*
X551181Y484252D02*
X596457D01*
X539370Y401575D02*
X547244Y393701D01*
X614173D01*
X631890Y375984D01*
Y344488D02*
Y375984D01*
X543307Y283465D02*
Y295276D01*
X564584Y277936D02*
X564961Y277559D01*
X548836Y277936D02*
X564584D01*
X543307Y283465D02*
X548836Y277936D01*
D28*
X1630315Y247244D02*
D03*
X1857874D02*
D03*
D29*
X1914173Y266929D02*
D03*
X1574016D02*
D03*
D30*
X1914173Y102362D02*
D03*
X1574016D02*
D03*
D31*
X1881102Y720472D02*
D03*
D32*
X1781102D02*
D03*
X1681102D02*
D03*
X1581102D02*
D03*
X1481102D02*
D03*
D33*
X600000Y669680D02*
D03*
X700000D02*
D03*
X650000D02*
D03*
D34*
X385827Y456693D02*
D03*
X476378Y519291D02*
D03*
X535433Y137795D02*
D03*
X751968Y35433D02*
D03*
X1304626Y433071D02*
D03*
X899114Y637795D02*
D03*
X798311Y602362D02*
D03*
X966535Y740158D02*
D03*
X901082D02*
D03*
X704724D02*
D03*
Y602362D02*
D03*
X770177Y740158D02*
D03*
X835630D02*
D03*
X964567Y637795D02*
D03*
X433071Y389764D02*
D03*
X350394D02*
D03*
X403543Y247638D02*
D03*
X960630Y539370D02*
D03*
X755905Y492126D02*
D03*
X795276Y519685D02*
D03*
X1035433Y578740D02*
D03*
X1472441Y448819D02*
D03*
X1606299Y456693D02*
D03*
X1740158Y515748D02*
D03*
X641535Y519488D02*
D03*
X566929Y429134D02*
D03*
X948819Y145669D02*
D03*
X903149Y236220D02*
D03*
X783465Y137795D02*
D03*
X403543Y185433D02*
D03*
X1039370Y137795D02*
D03*
X1838583Y326772D02*
D03*
X1649606D02*
D03*
X519685Y228346D02*
D03*
Y267716D02*
D03*
D35*
X618110Y291339D02*
D03*
X661417D02*
D03*
X704724D02*
D03*
X618110Y248031D02*
D03*
X661417D02*
D03*
X704724D02*
D03*
X618110Y204724D02*
D03*
X661417D02*
D03*
X704724D02*
D03*
%TF.MD5,da5ec64da90842432502ed380f46c50e*%
M02*
