M48
;Layer_Color=9474304
;FILE_FORMAT=2:5
INCH
;TYPE=PLATED
T01F00S00C0.01575
T02F00S00C0.02362
T04F00S00C0.03543
%
T01
X0147244Y0044882
X0160630Y0045669
X0164961Y0032677
X0183858
X0174016Y0051575
X0130463Y0043307
X0103543Y0057874
X0096063Y0053937
X0096457Y0063779
X0089911
X0090108Y0074016
X0096653
X0083563
X0077018
X0070472
Y0060236
X0079831
X0079528Y0051968
X0075590Y0049213
X0064153Y0051949
X0056693Y0042913
X0043307Y0038976
X0035039
X0038583Y0045669
X0047638Y0051929
X0051968Y0026772
Y0022835
X0053543Y0013780
X0061811Y0020472
Y0024803
Y0029134
X0066142
X0070472
Y0024803
X0066142
Y0020472
X0070472
X0078347Y0013780
X0075197Y0003543
X0094882Y0014567
X0103937Y0013780
X0090315Y0023622
X0040354Y0024764
Y0018543
T02
X0060000Y0066968
X0065000
X0070000
T04
X0148110Y0072047
X0158110
X0168110
X0178110
X0188110
M30
