%TF.GenerationSoftware,Altium Limited,Altium Designer,23.11.1 (41)*%
G04 Layer_Physical_Order=3*
G04 Layer_Color=16440176*
%FSLAX26Y26*%
%MOIN*%
%TF.SameCoordinates,9526E2AF-B100-4743-A6B5-6A4C7E8B4C09*%
%TF.FilePolarity,Positive*%
%TF.FileFunction,Copper,L3,Inr,Signal*%
%TF.Part,Single*%
G01*
G75*
%TA.AperFunction,ComponentPad*%
%ADD28C,0.025591*%
%ADD29O,0.041339X0.082677*%
%ADD30O,0.039370X0.078740*%
%ADD31R,0.059055X0.059055*%
%ADD32C,0.059055*%
%ADD33O,0.043622X0.088976*%
%TA.AperFunction,ViaPad*%
%ADD34C,0.031496*%
%ADD35C,0.027559*%
%TA.AperFunction,Conductor*%
%ADD36C,0.031496*%
G36*
X1858488Y-727231D02*
X1859144Y-727362D01*
X1859931Y-727559D01*
X1860850Y-727822D01*
X1861899Y-728215D01*
X1862949Y-728740D01*
X1859472Y-736612D01*
X1859407Y-736546D01*
X1859144Y-736481D01*
X1858816Y-736350D01*
X1858357Y-736153D01*
X1857373Y-735890D01*
X1856848Y-735825D01*
X1856389Y-735759D01*
X1856061D01*
X1855668Y-735825D01*
X1855143Y-735956D01*
X1854618Y-736218D01*
X1854093Y-736546D01*
X1853503Y-737006D01*
X1853043Y-737596D01*
X1852978Y-737727D01*
X1852912Y-737858D01*
X1852781Y-738121D01*
X1852650Y-738383D01*
X1852519Y-738777D01*
X1852322Y-739236D01*
X1852191Y-739761D01*
X1852060Y-740351D01*
X1851863Y-741073D01*
X1851732Y-741794D01*
X1851600Y-742713D01*
X1851469Y-743631D01*
X1851403Y-744681D01*
X1851338Y-745862D01*
Y-747108D01*
Y-756751D01*
X1840186D01*
Y-727822D01*
X1850551D01*
Y-732545D01*
X1850616Y-732479D01*
X1850813Y-732086D01*
X1851141Y-731561D01*
X1851535Y-730905D01*
X1851994Y-730183D01*
X1852519Y-729527D01*
X1853043Y-728871D01*
X1853634Y-728346D01*
X1853699Y-728281D01*
X1853896Y-728150D01*
X1854290Y-727953D01*
X1854749Y-727756D01*
X1855274Y-727559D01*
X1855930Y-727362D01*
X1856717Y-727231D01*
X1857570Y-727166D01*
X1858029D01*
X1858488Y-727231D01*
D02*
G37*
G36*
X1788100Y-758719D02*
Y-758785D01*
X1788034Y-758916D01*
X1787903Y-759244D01*
X1787772Y-759572D01*
X1787575Y-759966D01*
X1787378Y-760490D01*
X1786853Y-761606D01*
X1786263Y-762786D01*
X1785607Y-763967D01*
X1784885Y-765017D01*
X1784492Y-765476D01*
X1784098Y-765870D01*
X1783967Y-766001D01*
X1783770Y-766132D01*
X1783573Y-766263D01*
X1783245Y-766460D01*
X1782851Y-766722D01*
X1782458Y-766919D01*
X1781933Y-767182D01*
X1781343Y-767444D01*
X1780687Y-767641D01*
X1779965Y-767903D01*
X1779178Y-768100D01*
X1778325Y-768231D01*
X1777407Y-768362D01*
X1776357Y-768494D01*
X1774848D01*
X1774258Y-768428D01*
X1773471D01*
X1772421Y-768362D01*
X1771175Y-768231D01*
X1769666Y-768034D01*
X1767895Y-767838D01*
X1767042Y-760097D01*
X1767173D01*
X1767436Y-760228D01*
X1767960Y-760359D01*
X1768616Y-760490D01*
X1769403Y-760622D01*
X1770256Y-760753D01*
X1771306Y-760818D01*
X1772355Y-760884D01*
X1772684D01*
X1773012Y-760818D01*
X1773471Y-760753D01*
X1774520Y-760490D01*
X1775045Y-760294D01*
X1775504Y-759966D01*
X1775570Y-759900D01*
X1775701Y-759769D01*
X1775964Y-759572D01*
X1776226Y-759244D01*
X1776554Y-758785D01*
X1776947Y-758194D01*
X1777275Y-757538D01*
X1777603Y-756751D01*
X1765467Y-727822D01*
X1777144D01*
X1783114Y-747108D01*
X1788624Y-727822D01*
X1799580D01*
X1788100Y-758719D01*
D02*
G37*
G36*
X1899947Y-716210D02*
X1900538D01*
X1901850Y-716342D01*
X1903293Y-716473D01*
X1904802Y-716735D01*
X1906245Y-717063D01*
X1907557Y-717522D01*
X1907623D01*
X1907688Y-717588D01*
X1908082Y-717785D01*
X1908672Y-718113D01*
X1909459Y-718506D01*
X1910247Y-719097D01*
X1911100Y-719818D01*
X1911952Y-720606D01*
X1912739Y-721590D01*
X1912805Y-721721D01*
X1913068Y-722049D01*
X1913330Y-722639D01*
X1913724Y-723426D01*
X1914052Y-724345D01*
X1914380Y-725394D01*
X1914576Y-726575D01*
X1914642Y-727822D01*
Y-727887D01*
Y-727953D01*
Y-728150D01*
Y-728412D01*
X1914511Y-729134D01*
X1914380Y-730052D01*
X1914117Y-731102D01*
X1913724Y-732282D01*
X1913199Y-733529D01*
X1912477Y-734775D01*
Y-734841D01*
X1912346Y-734906D01*
X1912215Y-735103D01*
X1912083Y-735366D01*
X1911493Y-736022D01*
X1911100Y-736481D01*
X1910706Y-736940D01*
X1910181Y-737465D01*
X1909591Y-737990D01*
X1909000Y-738646D01*
X1908279Y-739236D01*
X1907492Y-739892D01*
X1906639Y-740614D01*
X1905720Y-741335D01*
X1904671Y-742057D01*
X1904605D01*
X1904540Y-742188D01*
X1904146Y-742450D01*
X1903555Y-742844D01*
X1902834Y-743303D01*
X1902112Y-743894D01*
X1901325Y-744418D01*
X1900669Y-744943D01*
X1900144Y-745337D01*
X1900079Y-745402D01*
X1899947Y-745468D01*
X1899685Y-745730D01*
X1899423Y-745993D01*
X1899029Y-746321D01*
X1898570Y-746714D01*
X1897520Y-747698D01*
X1914904D01*
Y-756751D01*
X1881580D01*
Y-756686D01*
Y-756554D01*
X1881645Y-756292D01*
X1881711Y-755898D01*
X1881776Y-755505D01*
X1881908Y-754980D01*
X1882039Y-754390D01*
X1882236Y-753734D01*
X1882629Y-752356D01*
X1883219Y-750782D01*
X1884007Y-749142D01*
X1884991Y-747502D01*
X1885056Y-747436D01*
X1885122Y-747305D01*
X1885319Y-747042D01*
X1885581Y-746714D01*
X1885909Y-746321D01*
X1886368Y-745796D01*
X1886893Y-745271D01*
X1887484Y-744615D01*
X1888139Y-743894D01*
X1888992Y-743106D01*
X1889845Y-742254D01*
X1890829Y-741335D01*
X1891944Y-740417D01*
X1893191Y-739433D01*
X1894503Y-738383D01*
X1895946Y-737268D01*
X1896012Y-737202D01*
X1896143Y-737137D01*
X1896405Y-736940D01*
X1896733Y-736678D01*
X1897586Y-736022D01*
X1898570Y-735234D01*
X1899620Y-734316D01*
X1900603Y-733398D01*
X1901522Y-732545D01*
X1901916Y-732151D01*
X1902178Y-731758D01*
X1902244Y-731692D01*
X1902375Y-731430D01*
X1902637Y-731036D01*
X1902899Y-730577D01*
X1903096Y-730052D01*
X1903359Y-729462D01*
X1903490Y-728806D01*
X1903555Y-728215D01*
Y-728150D01*
Y-727887D01*
X1903490Y-727559D01*
X1903359Y-727100D01*
X1903227Y-726641D01*
X1902965Y-726116D01*
X1902637Y-725591D01*
X1902178Y-725066D01*
X1902112Y-725001D01*
X1901916Y-724870D01*
X1901653Y-724673D01*
X1901259Y-724410D01*
X1900735Y-724148D01*
X1900144Y-723951D01*
X1899488Y-723820D01*
X1898767Y-723754D01*
X1898439D01*
X1898045Y-723820D01*
X1897520Y-723951D01*
X1896995Y-724082D01*
X1896405Y-724345D01*
X1895815Y-724673D01*
X1895290Y-725132D01*
X1895224Y-725198D01*
X1895093Y-725394D01*
X1894831Y-725722D01*
X1894568Y-726182D01*
X1894306Y-726838D01*
X1893978Y-727625D01*
X1893716Y-728609D01*
X1893519Y-729790D01*
X1882367Y-728937D01*
Y-728871D01*
Y-728740D01*
X1882432Y-728478D01*
X1882498Y-728150D01*
X1882563Y-727756D01*
X1882629Y-727297D01*
X1882891Y-726247D01*
X1883219Y-725066D01*
X1883613Y-723820D01*
X1884138Y-722639D01*
X1884728Y-721590D01*
X1884794Y-721458D01*
X1885056Y-721130D01*
X1885450Y-720671D01*
X1886040Y-720081D01*
X1886696Y-719425D01*
X1887549Y-718769D01*
X1888533Y-718178D01*
X1889648Y-717588D01*
X1889714D01*
X1889780Y-717522D01*
X1889976Y-717457D01*
X1890239Y-717391D01*
X1890567Y-717260D01*
X1890960Y-717129D01*
X1891419Y-716998D01*
X1891944Y-716866D01*
X1892535Y-716735D01*
X1893256Y-716604D01*
X1894765Y-716342D01*
X1896536Y-716210D01*
X1898504Y-716145D01*
X1899488D01*
X1899947Y-716210D01*
D02*
G37*
G36*
X1748739Y-727231D02*
X1750052Y-727297D01*
X1751363Y-727428D01*
X1752741Y-727559D01*
X1753922Y-727756D01*
X1754053D01*
X1754447Y-727887D01*
X1754972Y-728018D01*
X1755693Y-728281D01*
X1756480Y-728609D01*
X1757333Y-729002D01*
X1758186Y-729527D01*
X1758973Y-730118D01*
X1759039Y-730183D01*
X1759236Y-730314D01*
X1759498Y-730642D01*
X1759826Y-730970D01*
X1760154Y-731495D01*
X1760547Y-732086D01*
X1760876Y-732807D01*
X1761204Y-733594D01*
X1761269Y-733660D01*
X1761335Y-733988D01*
X1761466Y-734382D01*
X1761663Y-734972D01*
X1761794Y-735628D01*
X1761925Y-736350D01*
X1761991Y-737071D01*
X1762056Y-737858D01*
Y-750650D01*
Y-750716D01*
Y-750978D01*
Y-751372D01*
Y-751831D01*
X1762122Y-752881D01*
X1762188Y-753406D01*
X1762253Y-753865D01*
Y-753930D01*
X1762319Y-754062D01*
X1762384Y-754324D01*
X1762515Y-754652D01*
X1762647Y-755046D01*
X1762843Y-755570D01*
X1763106Y-756095D01*
X1763434Y-756751D01*
X1753004D01*
Y-756686D01*
X1752938Y-756554D01*
X1752676Y-756095D01*
X1752413Y-755570D01*
X1752216Y-755111D01*
Y-754980D01*
X1752085Y-754652D01*
X1751954Y-754062D01*
X1751888Y-753668D01*
X1751823Y-753209D01*
X1751757Y-753274D01*
X1751429Y-753537D01*
X1751035Y-753930D01*
X1750445Y-754390D01*
X1749789Y-754849D01*
X1749068Y-755374D01*
X1748280Y-755833D01*
X1747493Y-756226D01*
X1747362Y-756292D01*
X1746968Y-756423D01*
X1746378Y-756620D01*
X1745525Y-756817D01*
X1744541Y-757014D01*
X1743360Y-757210D01*
X1742048Y-757342D01*
X1740605Y-757407D01*
X1740080D01*
X1739752Y-757342D01*
X1739293D01*
X1738834Y-757276D01*
X1737653Y-757079D01*
X1736407Y-756817D01*
X1735095Y-756423D01*
X1733848Y-755833D01*
X1732733Y-755046D01*
X1732602Y-754914D01*
X1732340Y-754586D01*
X1731880Y-754062D01*
X1731421Y-753406D01*
X1730896Y-752553D01*
X1730437Y-751503D01*
X1730175Y-750388D01*
X1730043Y-749142D01*
Y-749076D01*
Y-749010D01*
Y-748617D01*
X1730175Y-747961D01*
X1730306Y-747239D01*
X1730503Y-746386D01*
X1730831Y-745468D01*
X1731290Y-744550D01*
X1731946Y-743697D01*
X1732012Y-743631D01*
X1732340Y-743369D01*
X1732864Y-742975D01*
X1733586Y-742516D01*
X1734570Y-741991D01*
X1735160Y-741729D01*
X1735816Y-741466D01*
X1736538Y-741204D01*
X1737325Y-741007D01*
X1738178Y-740745D01*
X1739096Y-740548D01*
X1739162D01*
X1739359Y-740482D01*
X1739687Y-740417D01*
X1740080Y-740351D01*
X1740605Y-740220D01*
X1741196Y-740154D01*
X1742507Y-739892D01*
X1743820Y-739564D01*
X1745197Y-739302D01*
X1745787Y-739170D01*
X1746378Y-739039D01*
X1746837Y-738908D01*
X1747231Y-738842D01*
X1747296D01*
X1747559Y-738777D01*
X1747952Y-738646D01*
X1748477Y-738449D01*
X1749068Y-738252D01*
X1749724Y-738055D01*
X1751232Y-737465D01*
Y-737399D01*
Y-737137D01*
X1751167Y-736809D01*
X1751101Y-736350D01*
X1750904Y-735431D01*
X1750642Y-734972D01*
X1750380Y-734644D01*
X1750314Y-734578D01*
X1750183Y-734513D01*
X1749986Y-734382D01*
X1749658Y-734185D01*
X1749264Y-734054D01*
X1748739Y-733922D01*
X1748083Y-733857D01*
X1747362Y-733791D01*
X1746903D01*
X1746444Y-733857D01*
X1745787Y-733922D01*
X1744476Y-734185D01*
X1743820Y-734382D01*
X1743229Y-734710D01*
X1743164D01*
X1743032Y-734841D01*
X1742835Y-735038D01*
X1742639Y-735234D01*
X1742376Y-735628D01*
X1742048Y-736022D01*
X1741786Y-736546D01*
X1741524Y-737202D01*
X1730896Y-736087D01*
Y-735956D01*
X1731027Y-735628D01*
X1731159Y-735103D01*
X1731355Y-734513D01*
X1731552Y-733791D01*
X1731880Y-733070D01*
X1732208Y-732414D01*
X1732602Y-731758D01*
X1732668Y-731692D01*
X1732799Y-731495D01*
X1733061Y-731167D01*
X1733455Y-730774D01*
X1733914Y-730380D01*
X1734439Y-729921D01*
X1735095Y-729462D01*
X1735882Y-729002D01*
X1735947Y-728937D01*
X1736144Y-728871D01*
X1736472Y-728674D01*
X1736997Y-728543D01*
X1737588Y-728281D01*
X1738309Y-728084D01*
X1739162Y-727887D01*
X1740080Y-727690D01*
X1740211D01*
X1740540Y-727625D01*
X1741064Y-727494D01*
X1741786Y-727428D01*
X1742704Y-727297D01*
X1743623Y-727231D01*
X1744738Y-727166D01*
X1747624D01*
X1748739Y-727231D01*
D02*
G37*
G36*
X1707215Y-746911D02*
X1726567D01*
Y-756751D01*
X1694882D01*
Y-716801D01*
X1707215D01*
Y-746911D01*
D02*
G37*
G36*
X1819325Y-727231D02*
X1819916D01*
X1820572Y-727297D01*
X1821293Y-727428D01*
X1822868Y-727625D01*
X1824507Y-727953D01*
X1826082Y-728412D01*
X1827525Y-729068D01*
X1827591D01*
X1827656Y-729134D01*
X1827853Y-729265D01*
X1828116Y-729396D01*
X1828772Y-729855D01*
X1829559Y-730446D01*
X1830477Y-731233D01*
X1831396Y-732217D01*
X1832248Y-733332D01*
X1833035Y-734578D01*
Y-734644D01*
X1833101Y-734710D01*
X1833232Y-734972D01*
X1833363Y-735234D01*
X1833495Y-735562D01*
X1833626Y-736022D01*
X1833823Y-736481D01*
X1834020Y-737071D01*
X1834151Y-737662D01*
X1834348Y-738383D01*
X1834676Y-739958D01*
X1834872Y-741794D01*
X1834938Y-743828D01*
Y-745074D01*
X1812699D01*
Y-745206D01*
X1812765Y-745534D01*
X1812831Y-745993D01*
X1812962Y-746583D01*
X1813159Y-747239D01*
X1813421Y-747895D01*
X1813684Y-748551D01*
X1814077Y-749076D01*
X1814143Y-749142D01*
X1814405Y-749338D01*
X1814733Y-749666D01*
X1815192Y-749994D01*
X1815848Y-750322D01*
X1816570Y-750650D01*
X1817357Y-750847D01*
X1818275Y-750913D01*
X1818538D01*
X1818866Y-750847D01*
X1819259Y-750782D01*
X1819719Y-750716D01*
X1820244Y-750585D01*
X1820834Y-750388D01*
X1821359Y-750126D01*
X1821424D01*
X1821490Y-749994D01*
X1821687Y-749863D01*
X1821949Y-749666D01*
X1822277Y-749470D01*
X1822605Y-749142D01*
X1822933Y-748748D01*
X1823327Y-748289D01*
X1834282Y-749273D01*
Y-749338D01*
X1834151Y-749470D01*
X1834020Y-749666D01*
X1833823Y-749994D01*
X1833298Y-750782D01*
X1832576Y-751700D01*
X1831658Y-752750D01*
X1830608Y-753799D01*
X1829493Y-754783D01*
X1828181Y-755570D01*
X1828116D01*
X1828050Y-755636D01*
X1827787Y-755767D01*
X1827525Y-755833D01*
X1827131Y-755964D01*
X1826738Y-756161D01*
X1826213Y-756292D01*
X1825623Y-756489D01*
X1824901Y-756686D01*
X1824179Y-756817D01*
X1823327Y-756948D01*
X1822408Y-757145D01*
X1821424Y-757210D01*
X1820375Y-757342D01*
X1819259Y-757407D01*
X1817160D01*
X1816636Y-757342D01*
X1816111D01*
X1814799Y-757210D01*
X1813355Y-757014D01*
X1811847Y-756751D01*
X1810338Y-756358D01*
X1809026Y-755833D01*
X1808960D01*
X1808895Y-755767D01*
X1808501Y-755505D01*
X1807845Y-755111D01*
X1807123Y-754586D01*
X1806271Y-753865D01*
X1805352Y-753012D01*
X1804434Y-751962D01*
X1803581Y-750716D01*
Y-750650D01*
X1803515Y-750585D01*
X1803384Y-750388D01*
X1803253Y-750060D01*
X1803056Y-749732D01*
X1802925Y-749338D01*
X1802532Y-748354D01*
X1802072Y-747108D01*
X1801744Y-745730D01*
X1801482Y-744090D01*
X1801416Y-742385D01*
Y-742319D01*
Y-742057D01*
Y-741729D01*
X1801482Y-741270D01*
X1801547Y-740679D01*
X1801679Y-740023D01*
X1801810Y-739236D01*
X1801941Y-738449D01*
X1802466Y-736678D01*
X1802794Y-735759D01*
X1803253Y-734841D01*
X1803712Y-733922D01*
X1804303Y-733070D01*
X1804959Y-732151D01*
X1805746Y-731364D01*
X1805812Y-731298D01*
X1805943Y-731167D01*
X1806205Y-730970D01*
X1806533Y-730708D01*
X1806992Y-730380D01*
X1807517Y-730052D01*
X1808173Y-729658D01*
X1808895Y-729265D01*
X1809682Y-728871D01*
X1810600Y-728478D01*
X1811584Y-728150D01*
X1812634Y-727822D01*
X1813815Y-727559D01*
X1815061Y-727362D01*
X1816373Y-727231D01*
X1817751Y-727166D01*
X1818800D01*
X1819325Y-727231D01*
D02*
G37*
%LPC*%
G36*
X1751232Y-743041D02*
X1751101Y-743106D01*
X1750839Y-743172D01*
X1750380Y-743369D01*
X1749724Y-743566D01*
X1749002Y-743762D01*
X1748215Y-744025D01*
X1746378Y-744484D01*
X1746312D01*
X1746247Y-744550D01*
X1745853Y-744615D01*
X1745263Y-744812D01*
X1744607Y-745074D01*
X1743885Y-745337D01*
X1743164Y-745599D01*
X1742573Y-745927D01*
X1742114Y-746255D01*
X1742048Y-746321D01*
X1741983Y-746386D01*
X1741851Y-746583D01*
X1741655Y-746846D01*
X1741327Y-747502D01*
X1741261Y-747895D01*
X1741196Y-748289D01*
Y-748354D01*
Y-748486D01*
X1741261Y-748748D01*
X1741327Y-749076D01*
X1741589Y-749732D01*
X1741786Y-750126D01*
X1742114Y-750454D01*
X1742179D01*
X1742311Y-750585D01*
X1742507Y-750716D01*
X1742770Y-750847D01*
X1743164Y-750978D01*
X1743623Y-751110D01*
X1744213Y-751175D01*
X1744803Y-751241D01*
X1745131D01*
X1745459Y-751175D01*
X1745919Y-751110D01*
X1746444Y-751044D01*
X1747034Y-750847D01*
X1747624Y-750650D01*
X1748215Y-750388D01*
X1748280Y-750322D01*
X1748477Y-750191D01*
X1748739Y-750060D01*
X1749133Y-749798D01*
X1749855Y-749076D01*
X1750248Y-748682D01*
X1750511Y-748223D01*
X1750576Y-748158D01*
X1750642Y-747961D01*
X1750773Y-747698D01*
X1750904Y-747305D01*
X1751035Y-746780D01*
X1751101Y-746255D01*
X1751232Y-745534D01*
Y-744812D01*
Y-743041D01*
D02*
G37*
G36*
X1818210Y-733726D02*
X1817751D01*
X1817292Y-733857D01*
X1816701Y-733988D01*
X1816045Y-734250D01*
X1815323Y-734644D01*
X1814602Y-735169D01*
X1813946Y-735890D01*
X1813880Y-735956D01*
X1813815Y-736153D01*
X1813618Y-736415D01*
X1813421Y-736874D01*
X1813224Y-737399D01*
X1813027Y-738055D01*
X1812831Y-738842D01*
X1812699Y-739761D01*
X1823655D01*
Y-739695D01*
Y-739630D01*
X1823589Y-739236D01*
X1823458Y-738646D01*
X1823327Y-737990D01*
X1823064Y-737202D01*
X1822802Y-736481D01*
X1822408Y-735759D01*
X1821883Y-735169D01*
X1821818Y-735103D01*
X1821621Y-734972D01*
X1821359Y-734710D01*
X1820899Y-734447D01*
X1820375Y-734185D01*
X1819784Y-733922D01*
X1818997Y-733791D01*
X1818210Y-733726D01*
D02*
G37*
%LPD*%
D28*
X1630315Y247244D02*
D03*
X1857874D02*
D03*
D29*
X1914173Y266929D02*
D03*
X1574016D02*
D03*
D30*
X1914173Y102362D02*
D03*
X1574016D02*
D03*
D31*
X1881102Y720472D02*
D03*
D32*
X1781102D02*
D03*
X1681102D02*
D03*
X1581102D02*
D03*
X1481102D02*
D03*
D33*
X600000Y669680D02*
D03*
X700000D02*
D03*
X650000D02*
D03*
D34*
X385827Y456693D02*
D03*
X476378Y519291D02*
D03*
X535433Y137795D02*
D03*
X751968Y35433D02*
D03*
X1304626Y433071D02*
D03*
X899114Y637795D02*
D03*
X798311Y602362D02*
D03*
X966535Y740158D02*
D03*
X901082D02*
D03*
X704724D02*
D03*
Y602362D02*
D03*
X770177Y740158D02*
D03*
X835630D02*
D03*
X964567Y637795D02*
D03*
X433071Y389764D02*
D03*
X350394D02*
D03*
X403543Y247638D02*
D03*
X960630Y539370D02*
D03*
X755905Y492126D02*
D03*
X795276Y519685D02*
D03*
X1035433Y578740D02*
D03*
X1472441Y448819D02*
D03*
X1606299Y456693D02*
D03*
X1740158Y515748D02*
D03*
X641535Y519488D02*
D03*
X566929Y429134D02*
D03*
X948819Y145669D02*
D03*
X903149Y236220D02*
D03*
X783465Y137795D02*
D03*
X403543Y185433D02*
D03*
X1039370Y137795D02*
D03*
X1838583Y326772D02*
D03*
X1649606D02*
D03*
X519685Y228346D02*
D03*
Y267716D02*
D03*
D35*
X618110Y291339D02*
D03*
X661417D02*
D03*
X704724D02*
D03*
X618110Y248031D02*
D03*
X661417D02*
D03*
X704724D02*
D03*
X618110Y204724D02*
D03*
X661417D02*
D03*
X704724D02*
D03*
D36*
X385827Y456693D02*
X444882D01*
X480315Y421260D01*
Y381890D02*
Y421260D01*
Y381890D02*
X1253445D01*
X403543Y247638D02*
X480315Y324409D01*
Y381890D01*
X1253445D02*
X1304626Y433071D01*
%TF.MD5,aba1e3d19310d472751fd95d4dbbe9a7*%
M02*
