%TF.GenerationSoftware,Altium Limited,Altium Designer,23.11.1 (41)*%
G04 Layer_Physical_Order=2*
G04 Layer_Color=36540*
%FSLAX26Y26*%
%MOIN*%
%TF.SameCoordinates,9526E2AF-B100-4743-A6B5-6A4C7E8B4C09*%
%TF.FilePolarity,Positive*%
%TF.FileFunction,Copper,L2,Inr,Signal*%
%TF.Part,Single*%
G01*
G75*
%TA.AperFunction,ComponentPad*%
%ADD28C,0.025591*%
%ADD29O,0.041339X0.082677*%
%ADD30O,0.039370X0.078740*%
%ADD31R,0.059055X0.059055*%
%ADD32C,0.059055*%
%ADD33O,0.043622X0.088976*%
%TA.AperFunction,ViaPad*%
%ADD34C,0.031496*%
%ADD35C,0.027559*%
G36*
X1943775Y775604D02*
X1951525Y770425D01*
X1956704Y762675D01*
X1958445Y753919D01*
X1958368Y753533D01*
Y33867D01*
X1958445Y33481D01*
X1956704Y24725D01*
X1951525Y16975D01*
X1943775Y11796D01*
X1935019Y10055D01*
X1934633Y10132D01*
X283465D01*
Y777268D01*
X1934633D01*
X1935019Y777345D01*
X1943775Y775604D01*
D02*
G37*
G36*
X1858488Y-624803D02*
X1859144Y-624934D01*
X1859931Y-625131D01*
X1860850Y-625393D01*
X1861899Y-625787D01*
X1862949Y-626312D01*
X1859472Y-634184D01*
X1859407Y-634118D01*
X1859144Y-634053D01*
X1858816Y-633921D01*
X1858357Y-633725D01*
X1857373Y-633462D01*
X1856848Y-633397D01*
X1856389Y-633331D01*
X1856061D01*
X1855668Y-633397D01*
X1855143Y-633528D01*
X1854618Y-633790D01*
X1854093Y-634118D01*
X1853503Y-634577D01*
X1853043Y-635168D01*
X1852978Y-635299D01*
X1852912Y-635430D01*
X1852781Y-635693D01*
X1852650Y-635955D01*
X1852519Y-636349D01*
X1852322Y-636808D01*
X1852191Y-637333D01*
X1852060Y-637923D01*
X1851863Y-638645D01*
X1851732Y-639366D01*
X1851600Y-640285D01*
X1851469Y-641203D01*
X1851403Y-642253D01*
X1851338Y-643433D01*
Y-644680D01*
Y-654323D01*
X1840186D01*
Y-625393D01*
X1850551D01*
Y-630117D01*
X1850616Y-630051D01*
X1850813Y-629657D01*
X1851141Y-629133D01*
X1851535Y-628477D01*
X1851994Y-627755D01*
X1852519Y-627099D01*
X1853043Y-626443D01*
X1853634Y-625918D01*
X1853699Y-625853D01*
X1853896Y-625721D01*
X1854290Y-625525D01*
X1854749Y-625328D01*
X1855274Y-625131D01*
X1855930Y-624934D01*
X1856717Y-624803D01*
X1857570Y-624737D01*
X1858029D01*
X1858488Y-624803D01*
D02*
G37*
G36*
X1788100Y-656291D02*
Y-656357D01*
X1788034Y-656488D01*
X1787903Y-656816D01*
X1787772Y-657144D01*
X1787575Y-657537D01*
X1787378Y-658062D01*
X1786853Y-659177D01*
X1786263Y-660358D01*
X1785607Y-661539D01*
X1784885Y-662589D01*
X1784492Y-663048D01*
X1784098Y-663441D01*
X1783967Y-663573D01*
X1783770Y-663704D01*
X1783573Y-663835D01*
X1783245Y-664032D01*
X1782851Y-664294D01*
X1782458Y-664491D01*
X1781933Y-664753D01*
X1781343Y-665016D01*
X1780687Y-665213D01*
X1779965Y-665475D01*
X1779178Y-665672D01*
X1778325Y-665803D01*
X1777407Y-665934D01*
X1776357Y-666065D01*
X1774848D01*
X1774258Y-666000D01*
X1773471D01*
X1772421Y-665934D01*
X1771175Y-665803D01*
X1769666Y-665606D01*
X1767895Y-665409D01*
X1767042Y-657669D01*
X1767173D01*
X1767436Y-657800D01*
X1767960Y-657931D01*
X1768616Y-658062D01*
X1769403Y-658193D01*
X1770256Y-658325D01*
X1771306Y-658390D01*
X1772355Y-658456D01*
X1772684D01*
X1773012Y-658390D01*
X1773471Y-658325D01*
X1774520Y-658062D01*
X1775045Y-657865D01*
X1775504Y-657537D01*
X1775570Y-657472D01*
X1775701Y-657341D01*
X1775964Y-657144D01*
X1776226Y-656816D01*
X1776554Y-656357D01*
X1776947Y-655766D01*
X1777275Y-655110D01*
X1777603Y-654323D01*
X1765467Y-625393D01*
X1777144D01*
X1783114Y-644680D01*
X1788624Y-625393D01*
X1799580D01*
X1788100Y-656291D01*
D02*
G37*
G36*
X1907557Y-654323D02*
X1896340D01*
Y-627755D01*
X1896208Y-627821D01*
X1895880Y-628083D01*
X1895355Y-628477D01*
X1894634Y-628936D01*
X1893847Y-629526D01*
X1892928Y-630051D01*
X1892010Y-630641D01*
X1891026Y-631166D01*
X1890895Y-631232D01*
X1890567Y-631363D01*
X1890042Y-631625D01*
X1889255Y-631953D01*
X1888336Y-632281D01*
X1887287Y-632675D01*
X1886040Y-633134D01*
X1884663Y-633528D01*
Y-624475D01*
X1884728D01*
X1884925Y-624409D01*
X1885188Y-624278D01*
X1885581Y-624147D01*
X1886040Y-624016D01*
X1886631Y-623753D01*
X1887877Y-623294D01*
X1889320Y-622638D01*
X1890764Y-621917D01*
X1892141Y-621064D01*
X1893453Y-620145D01*
X1893519D01*
X1893584Y-620014D01*
X1893978Y-619686D01*
X1894568Y-619096D01*
X1895224Y-618374D01*
X1896012Y-617390D01*
X1896864Y-616341D01*
X1897651Y-615094D01*
X1898373Y-613717D01*
X1907557D01*
Y-654323D01*
D02*
G37*
G36*
X1748739Y-624803D02*
X1750052Y-624869D01*
X1751363Y-625000D01*
X1752741Y-625131D01*
X1753922Y-625328D01*
X1754053D01*
X1754447Y-625459D01*
X1754972Y-625590D01*
X1755693Y-625853D01*
X1756480Y-626181D01*
X1757333Y-626574D01*
X1758186Y-627099D01*
X1758973Y-627689D01*
X1759039Y-627755D01*
X1759236Y-627886D01*
X1759498Y-628214D01*
X1759826Y-628542D01*
X1760154Y-629067D01*
X1760547Y-629657D01*
X1760876Y-630379D01*
X1761204Y-631166D01*
X1761269Y-631232D01*
X1761335Y-631560D01*
X1761466Y-631953D01*
X1761663Y-632544D01*
X1761794Y-633200D01*
X1761925Y-633921D01*
X1761991Y-634643D01*
X1762056Y-635430D01*
Y-648222D01*
Y-648288D01*
Y-648550D01*
Y-648944D01*
Y-649403D01*
X1762122Y-650453D01*
X1762188Y-650977D01*
X1762253Y-651437D01*
Y-651502D01*
X1762319Y-651633D01*
X1762384Y-651896D01*
X1762515Y-652224D01*
X1762647Y-652617D01*
X1762843Y-653142D01*
X1763106Y-653667D01*
X1763434Y-654323D01*
X1753004D01*
Y-654257D01*
X1752938Y-654126D01*
X1752676Y-653667D01*
X1752413Y-653142D01*
X1752216Y-652683D01*
Y-652552D01*
X1752085Y-652224D01*
X1751954Y-651633D01*
X1751888Y-651240D01*
X1751823Y-650781D01*
X1751757Y-650846D01*
X1751429Y-651109D01*
X1751035Y-651502D01*
X1750445Y-651961D01*
X1749789Y-652421D01*
X1749068Y-652945D01*
X1748280Y-653405D01*
X1747493Y-653798D01*
X1747362Y-653864D01*
X1746968Y-653995D01*
X1746378Y-654192D01*
X1745525Y-654389D01*
X1744541Y-654585D01*
X1743360Y-654782D01*
X1742048Y-654913D01*
X1740605Y-654979D01*
X1740080D01*
X1739752Y-654913D01*
X1739293D01*
X1738834Y-654848D01*
X1737653Y-654651D01*
X1736407Y-654389D01*
X1735095Y-653995D01*
X1733848Y-653405D01*
X1732733Y-652617D01*
X1732602Y-652486D01*
X1732340Y-652158D01*
X1731880Y-651633D01*
X1731421Y-650977D01*
X1730896Y-650125D01*
X1730437Y-649075D01*
X1730175Y-647960D01*
X1730043Y-646713D01*
Y-646648D01*
Y-646582D01*
Y-646189D01*
X1730175Y-645533D01*
X1730306Y-644811D01*
X1730503Y-643958D01*
X1730831Y-643040D01*
X1731290Y-642121D01*
X1731946Y-641269D01*
X1732012Y-641203D01*
X1732340Y-640941D01*
X1732864Y-640547D01*
X1733586Y-640088D01*
X1734570Y-639563D01*
X1735160Y-639301D01*
X1735816Y-639038D01*
X1736538Y-638776D01*
X1737325Y-638579D01*
X1738178Y-638317D01*
X1739096Y-638120D01*
X1739162D01*
X1739359Y-638054D01*
X1739687Y-637989D01*
X1740080Y-637923D01*
X1740605Y-637792D01*
X1741196Y-637726D01*
X1742507Y-637464D01*
X1743820Y-637136D01*
X1745197Y-636873D01*
X1745787Y-636742D01*
X1746378Y-636611D01*
X1746837Y-636480D01*
X1747231Y-636414D01*
X1747296D01*
X1747559Y-636349D01*
X1747952Y-636217D01*
X1748477Y-636021D01*
X1749068Y-635824D01*
X1749724Y-635627D01*
X1751232Y-635037D01*
Y-634971D01*
Y-634709D01*
X1751167Y-634381D01*
X1751101Y-633921D01*
X1750904Y-633003D01*
X1750642Y-632544D01*
X1750380Y-632216D01*
X1750314Y-632150D01*
X1750183Y-632085D01*
X1749986Y-631953D01*
X1749658Y-631757D01*
X1749264Y-631625D01*
X1748739Y-631494D01*
X1748083Y-631429D01*
X1747362Y-631363D01*
X1746903D01*
X1746444Y-631429D01*
X1745787Y-631494D01*
X1744476Y-631757D01*
X1743820Y-631953D01*
X1743229Y-632281D01*
X1743164D01*
X1743032Y-632413D01*
X1742835Y-632609D01*
X1742639Y-632806D01*
X1742376Y-633200D01*
X1742048Y-633593D01*
X1741786Y-634118D01*
X1741524Y-634774D01*
X1730896Y-633659D01*
Y-633528D01*
X1731027Y-633200D01*
X1731159Y-632675D01*
X1731355Y-632085D01*
X1731552Y-631363D01*
X1731880Y-630641D01*
X1732208Y-629985D01*
X1732602Y-629329D01*
X1732668Y-629264D01*
X1732799Y-629067D01*
X1733061Y-628739D01*
X1733455Y-628345D01*
X1733914Y-627952D01*
X1734439Y-627493D01*
X1735095Y-627033D01*
X1735882Y-626574D01*
X1735947Y-626509D01*
X1736144Y-626443D01*
X1736472Y-626246D01*
X1736997Y-626115D01*
X1737588Y-625853D01*
X1738309Y-625656D01*
X1739162Y-625459D01*
X1740080Y-625262D01*
X1740211D01*
X1740540Y-625197D01*
X1741064Y-625065D01*
X1741786Y-625000D01*
X1742704Y-624869D01*
X1743623Y-624803D01*
X1744738Y-624737D01*
X1747624D01*
X1748739Y-624803D01*
D02*
G37*
G36*
X1707215Y-644483D02*
X1726567D01*
Y-654323D01*
X1694882D01*
Y-614373D01*
X1707215D01*
Y-644483D01*
D02*
G37*
G36*
X1819325Y-624803D02*
X1819916D01*
X1820572Y-624869D01*
X1821293Y-625000D01*
X1822868Y-625197D01*
X1824507Y-625525D01*
X1826082Y-625984D01*
X1827525Y-626640D01*
X1827591D01*
X1827656Y-626705D01*
X1827853Y-626837D01*
X1828116Y-626968D01*
X1828772Y-627427D01*
X1829559Y-628017D01*
X1830477Y-628805D01*
X1831396Y-629789D01*
X1832248Y-630904D01*
X1833035Y-632150D01*
Y-632216D01*
X1833101Y-632281D01*
X1833232Y-632544D01*
X1833363Y-632806D01*
X1833495Y-633134D01*
X1833626Y-633593D01*
X1833823Y-634053D01*
X1834020Y-634643D01*
X1834151Y-635233D01*
X1834348Y-635955D01*
X1834676Y-637529D01*
X1834872Y-639366D01*
X1834938Y-641400D01*
Y-642646D01*
X1812699D01*
Y-642777D01*
X1812765Y-643105D01*
X1812831Y-643565D01*
X1812962Y-644155D01*
X1813159Y-644811D01*
X1813421Y-645467D01*
X1813684Y-646123D01*
X1814077Y-646648D01*
X1814143Y-646713D01*
X1814405Y-646910D01*
X1814733Y-647238D01*
X1815192Y-647566D01*
X1815848Y-647894D01*
X1816570Y-648222D01*
X1817357Y-648419D01*
X1818275Y-648485D01*
X1818538D01*
X1818866Y-648419D01*
X1819259Y-648353D01*
X1819719Y-648288D01*
X1820244Y-648157D01*
X1820834Y-647960D01*
X1821359Y-647697D01*
X1821424D01*
X1821490Y-647566D01*
X1821687Y-647435D01*
X1821949Y-647238D01*
X1822277Y-647041D01*
X1822605Y-646713D01*
X1822933Y-646320D01*
X1823327Y-645861D01*
X1834282Y-646845D01*
Y-646910D01*
X1834151Y-647041D01*
X1834020Y-647238D01*
X1833823Y-647566D01*
X1833298Y-648353D01*
X1832576Y-649272D01*
X1831658Y-650321D01*
X1830608Y-651371D01*
X1829493Y-652355D01*
X1828181Y-653142D01*
X1828116D01*
X1828050Y-653208D01*
X1827787Y-653339D01*
X1827525Y-653405D01*
X1827131Y-653536D01*
X1826738Y-653733D01*
X1826213Y-653864D01*
X1825623Y-654061D01*
X1824901Y-654257D01*
X1824179Y-654389D01*
X1823327Y-654520D01*
X1822408Y-654717D01*
X1821424Y-654782D01*
X1820375Y-654913D01*
X1819259Y-654979D01*
X1817160D01*
X1816636Y-654913D01*
X1816111D01*
X1814799Y-654782D01*
X1813355Y-654585D01*
X1811847Y-654323D01*
X1810338Y-653929D01*
X1809026Y-653405D01*
X1808960D01*
X1808895Y-653339D01*
X1808501Y-653077D01*
X1807845Y-652683D01*
X1807123Y-652158D01*
X1806271Y-651437D01*
X1805352Y-650584D01*
X1804434Y-649534D01*
X1803581Y-648288D01*
Y-648222D01*
X1803515Y-648157D01*
X1803384Y-647960D01*
X1803253Y-647632D01*
X1803056Y-647304D01*
X1802925Y-646910D01*
X1802532Y-645926D01*
X1802072Y-644680D01*
X1801744Y-643302D01*
X1801482Y-641662D01*
X1801416Y-639957D01*
Y-639891D01*
Y-639629D01*
Y-639301D01*
X1801482Y-638841D01*
X1801547Y-638251D01*
X1801679Y-637595D01*
X1801810Y-636808D01*
X1801941Y-636021D01*
X1802466Y-634249D01*
X1802794Y-633331D01*
X1803253Y-632413D01*
X1803712Y-631494D01*
X1804303Y-630641D01*
X1804959Y-629723D01*
X1805746Y-628936D01*
X1805812Y-628870D01*
X1805943Y-628739D01*
X1806205Y-628542D01*
X1806533Y-628280D01*
X1806992Y-627952D01*
X1807517Y-627624D01*
X1808173Y-627230D01*
X1808895Y-626837D01*
X1809682Y-626443D01*
X1810600Y-626049D01*
X1811584Y-625721D01*
X1812634Y-625393D01*
X1813815Y-625131D01*
X1815061Y-624934D01*
X1816373Y-624803D01*
X1817751Y-624737D01*
X1818800D01*
X1819325Y-624803D01*
D02*
G37*
%LPC*%
G36*
X1490945Y760632D02*
Y730315D01*
X1521262D01*
X1519624Y736428D01*
X1514181Y745855D01*
X1506485Y753551D01*
X1497059Y758994D01*
X1490945Y760632D01*
D02*
G37*
G36*
X1471259Y760632D02*
X1465146Y758994D01*
X1455720Y753551D01*
X1448023Y745855D01*
X1442581Y736428D01*
X1440943Y730315D01*
X1471259D01*
Y760632D01*
D02*
G37*
G36*
X640158Y724673D02*
X633044Y721726D01*
X626020Y716337D01*
X624169Y713924D01*
X617760Y713785D01*
X614025Y716650D01*
X607260Y719452D01*
X600000Y720408D01*
X592740Y719452D01*
X585975Y716650D01*
X580165Y712192D01*
X575707Y706383D01*
X572905Y699617D01*
X571949Y692357D01*
Y647003D01*
X572905Y639743D01*
X575707Y632977D01*
X580165Y627168D01*
X585975Y622710D01*
X592740Y619908D01*
X600000Y618952D01*
X607260Y619908D01*
X614025Y622710D01*
X617760Y625575D01*
X624169Y625436D01*
X626020Y623023D01*
X633044Y617634D01*
X640158Y614688D01*
Y669680D01*
Y724673D01*
D02*
G37*
G36*
X1916630Y756000D02*
X1845575D01*
Y684945D01*
X1916630D01*
Y756000D01*
D02*
G37*
G36*
X1785780D02*
X1776425D01*
X1767389Y753579D01*
X1759288Y748902D01*
X1752673Y742287D01*
X1747996Y734186D01*
X1745575Y725150D01*
Y715795D01*
X1747996Y706759D01*
X1752673Y698658D01*
X1759288Y692043D01*
X1767389Y687366D01*
X1776425Y684945D01*
X1785780D01*
X1794815Y687366D01*
X1802917Y692043D01*
X1809532Y698658D01*
X1814209Y706759D01*
X1816630Y715795D01*
Y725150D01*
X1814209Y734186D01*
X1809532Y742287D01*
X1802917Y748902D01*
X1794815Y753579D01*
X1785780Y756000D01*
D02*
G37*
G36*
X1685780D02*
X1676425D01*
X1667389Y753579D01*
X1659288Y748902D01*
X1652673Y742287D01*
X1647996Y734186D01*
X1645575Y725150D01*
Y715795D01*
X1647996Y706759D01*
X1652673Y698658D01*
X1659288Y692043D01*
X1667389Y687366D01*
X1676425Y684945D01*
X1685780D01*
X1694815Y687366D01*
X1702917Y692043D01*
X1709532Y698658D01*
X1714209Y706759D01*
X1716630Y715795D01*
Y725150D01*
X1714209Y734186D01*
X1709532Y742287D01*
X1702917Y748902D01*
X1694815Y753579D01*
X1685780Y756000D01*
D02*
G37*
G36*
X1585780D02*
X1576425D01*
X1567389Y753579D01*
X1559288Y748902D01*
X1552673Y742287D01*
X1547996Y734186D01*
X1545575Y725150D01*
Y715795D01*
X1547996Y706759D01*
X1552673Y698658D01*
X1559288Y692043D01*
X1567389Y687366D01*
X1576425Y684945D01*
X1585780D01*
X1594815Y687366D01*
X1602917Y692043D01*
X1609532Y698658D01*
X1614209Y706759D01*
X1616630Y715795D01*
Y725150D01*
X1614209Y734186D01*
X1609532Y742287D01*
X1602917Y748902D01*
X1594815Y753579D01*
X1585780Y756000D01*
D02*
G37*
G36*
X1471259Y710630D02*
X1440943D01*
X1442581Y704516D01*
X1448023Y695090D01*
X1455720Y687393D01*
X1465146Y681951D01*
X1471259Y680313D01*
Y710630D01*
D02*
G37*
G36*
X1521262D02*
X1490945D01*
Y680313D01*
X1497059Y681951D01*
X1506485Y687393D01*
X1514181Y695090D01*
X1519624Y704516D01*
X1521262Y710630D01*
D02*
G37*
G36*
X659842Y724673D02*
Y669680D01*
Y614688D01*
X666956Y617634D01*
X673980Y623023D01*
X675831Y625436D01*
X682240Y625575D01*
X685975Y622710D01*
X692740Y619908D01*
X700000Y618952D01*
X707260Y619908D01*
X714025Y622710D01*
X719835Y627168D01*
X724293Y632977D01*
X727095Y639743D01*
X728051Y647003D01*
Y692357D01*
X727095Y699617D01*
X724293Y706383D01*
X719835Y712192D01*
X714025Y716650D01*
X707260Y719452D01*
X700000Y720408D01*
X692740Y719452D01*
X685975Y716650D01*
X682240Y713785D01*
X675831Y713924D01*
X673980Y716337D01*
X666956Y721726D01*
X659842Y724673D01*
D02*
G37*
G36*
X1039759Y600488D02*
X1031107D01*
X1023114Y597177D01*
X1016996Y591059D01*
X1013685Y583066D01*
Y574414D01*
X1016996Y566421D01*
X1023114Y560303D01*
X1031107Y556992D01*
X1039759D01*
X1047752Y560303D01*
X1053870Y566421D01*
X1057181Y574414D01*
Y583066D01*
X1053870Y591059D01*
X1047752Y597177D01*
X1039759Y600488D01*
D02*
G37*
G36*
X964956Y561118D02*
X956304D01*
X948311Y557807D01*
X942193Y551689D01*
X938882Y543696D01*
Y535044D01*
X942193Y527051D01*
X948311Y520933D01*
X956304Y517622D01*
X964956D01*
X972949Y520933D01*
X979067Y527051D01*
X982378Y535044D01*
Y543696D01*
X979067Y551689D01*
X972949Y557807D01*
X964956Y561118D01*
D02*
G37*
G36*
X799602Y541433D02*
X790950D01*
X782956Y538122D01*
X776838Y532004D01*
X773528Y524011D01*
Y515359D01*
X775668Y510191D01*
X771430Y507358D01*
X768225Y510563D01*
X760231Y513874D01*
X751580D01*
X743586Y510563D01*
X737468Y504445D01*
X734158Y496452D01*
Y487800D01*
X737468Y479807D01*
X743586Y473689D01*
X751580Y470378D01*
X760231D01*
X768225Y473689D01*
X774343Y479807D01*
X777654Y487800D01*
Y496452D01*
X775513Y501620D01*
X779751Y504453D01*
X782956Y501248D01*
X790950Y497937D01*
X799602D01*
X807595Y501248D01*
X813713Y507366D01*
X817024Y515359D01*
Y524011D01*
X813713Y532004D01*
X807595Y538122D01*
X799602Y541433D01*
D02*
G37*
G36*
X390153Y478441D02*
X381501D01*
X373507Y475130D01*
X367390Y469012D01*
X364079Y461019D01*
Y452367D01*
X367390Y444374D01*
X373507Y438256D01*
X381501Y434945D01*
X390153D01*
X398146Y438256D01*
X404264Y444374D01*
X407575Y452367D01*
Y461019D01*
X404264Y469012D01*
X398146Y475130D01*
X390153Y478441D01*
D02*
G37*
G36*
X1308952Y454819D02*
X1300300D01*
X1292307Y451508D01*
X1286189Y445390D01*
X1282878Y437397D01*
Y428745D01*
X1286189Y420752D01*
X1292307Y414634D01*
X1300300Y411323D01*
X1308952D01*
X1316945Y414634D01*
X1323063Y420752D01*
X1326374Y428745D01*
Y437397D01*
X1323063Y445390D01*
X1316945Y451508D01*
X1308952Y454819D01*
D02*
G37*
G36*
X1842909Y348520D02*
X1834257D01*
X1826263Y345209D01*
X1820146Y339091D01*
X1816835Y331098D01*
Y322446D01*
X1820146Y314452D01*
X1826263Y308335D01*
X1834257Y305024D01*
X1842909D01*
X1850902Y308335D01*
X1857020Y314452D01*
X1860331Y322446D01*
Y331098D01*
X1857020Y339091D01*
X1850902Y345209D01*
X1842909Y348520D01*
D02*
G37*
G36*
X1653932D02*
X1645280D01*
X1637287Y345209D01*
X1631169Y339091D01*
X1627858Y331098D01*
Y322446D01*
X1631169Y314452D01*
X1637287Y308335D01*
X1645280Y305024D01*
X1653932D01*
X1661926Y308335D01*
X1668043Y314452D01*
X1671354Y322446D01*
Y331098D01*
X1668043Y339091D01*
X1661926Y345209D01*
X1653932Y348520D01*
D02*
G37*
G36*
X1583858Y318678D02*
Y276772D01*
X1606776D01*
Y287598D01*
X1605660Y296077D01*
X1602387Y303979D01*
X1597181Y310764D01*
X1590396Y315970D01*
X1583858Y318678D01*
D02*
G37*
G36*
X1564173Y318678D02*
X1557636Y315970D01*
X1550851Y310764D01*
X1545644Y303979D01*
X1542371Y296077D01*
X1541255Y287598D01*
Y276772D01*
X1564173D01*
Y318678D01*
D02*
G37*
G36*
X1924016Y318678D02*
Y276772D01*
X1946934D01*
Y287598D01*
X1945818Y296077D01*
X1942545Y303979D01*
X1937338Y310764D01*
X1930553Y315970D01*
X1924016Y318678D01*
D02*
G37*
G36*
X1904331Y318678D02*
X1897793Y315970D01*
X1891008Y310764D01*
X1885802Y303979D01*
X1882529Y296077D01*
X1881413Y287598D01*
Y276772D01*
X1904331D01*
Y318678D01*
D02*
G37*
G36*
X1634054Y266039D02*
X1626576D01*
X1619668Y263178D01*
X1614381Y257891D01*
X1611520Y250983D01*
X1606776Y251602D01*
Y257087D01*
X1583858D01*
Y215180D01*
X1590396Y217888D01*
X1597181Y223095D01*
X1602387Y229880D01*
X1605660Y237781D01*
X1606520Y244310D01*
X1611520Y243982D01*
Y243506D01*
X1614381Y236597D01*
X1619668Y231310D01*
X1626576Y228449D01*
X1634054D01*
X1640962Y231310D01*
X1646249Y236597D01*
X1649110Y243506D01*
Y250983D01*
X1646249Y257891D01*
X1640962Y263178D01*
X1634054Y266039D01*
D02*
G37*
G36*
X407869Y269386D02*
X399217D01*
X391224Y266075D01*
X385106Y259957D01*
X381795Y251964D01*
Y243312D01*
X385106Y235319D01*
X391224Y229201D01*
X399217Y225890D01*
X407869D01*
X415863Y229201D01*
X421981Y235319D01*
X425291Y243312D01*
Y251964D01*
X421981Y259957D01*
X415863Y266075D01*
X407869Y269386D01*
D02*
G37*
G36*
X1946934Y257087D02*
X1924016D01*
Y215180D01*
X1930553Y217888D01*
X1937338Y223095D01*
X1942545Y229880D01*
X1945818Y237781D01*
X1946934Y246260D01*
Y257087D01*
D02*
G37*
G36*
X1564173Y257087D02*
X1541255D01*
Y246260D01*
X1542371Y237781D01*
X1545644Y229880D01*
X1550851Y223095D01*
X1557636Y217888D01*
X1564173Y215180D01*
Y257087D01*
D02*
G37*
G36*
X1861613Y266039D02*
X1854135D01*
X1847227Y263178D01*
X1841940Y257891D01*
X1839079Y250983D01*
Y243506D01*
X1841940Y236597D01*
X1847227Y231310D01*
X1854135Y228449D01*
X1861613D01*
X1868521Y231310D01*
X1873808Y236597D01*
X1876669Y243506D01*
Y243982D01*
X1881669Y244310D01*
X1882529Y237781D01*
X1885802Y229880D01*
X1891008Y223095D01*
X1897793Y217888D01*
X1904331Y215180D01*
Y257087D01*
X1881413D01*
Y251602D01*
X1876669Y250983D01*
X1873808Y257891D01*
X1868521Y263178D01*
X1861613Y266039D01*
D02*
G37*
G36*
X524011Y289464D02*
X515359D01*
X507366Y286154D01*
X501248Y280036D01*
X497937Y272043D01*
Y263390D01*
X501248Y255397D01*
X505347Y251298D01*
X506808Y248031D01*
X505347Y244765D01*
X501248Y240666D01*
X497937Y232673D01*
Y224020D01*
X501248Y216027D01*
X507366Y209909D01*
X515359Y206599D01*
X524011D01*
X532004Y209909D01*
X538122Y216027D01*
X541433Y224020D01*
Y232673D01*
X538122Y240666D01*
X534023Y244765D01*
X532562Y248031D01*
X534023Y251298D01*
X538122Y255397D01*
X541433Y263390D01*
Y272043D01*
X538122Y280036D01*
X532004Y286154D01*
X524011Y289464D01*
D02*
G37*
G36*
X953145Y167417D02*
X944493D01*
X936500Y164106D01*
X930382Y157989D01*
X927071Y149995D01*
Y141343D01*
X930382Y133350D01*
X936500Y127232D01*
X944493Y123921D01*
X953145D01*
X961138Y127232D01*
X967256Y133350D01*
X970567Y141343D01*
Y149995D01*
X967256Y157989D01*
X961138Y164106D01*
X953145Y167417D01*
D02*
G37*
G36*
X1309751Y256000D02*
X1296548D01*
X1283600Y253424D01*
X1271402Y248372D01*
X1260425Y241037D01*
X1251089Y231702D01*
X1243754Y220724D01*
X1238702Y208526D01*
X1236126Y195578D01*
Y182375D01*
X1238702Y169426D01*
X1243754Y157229D01*
X1251089Y146251D01*
X1260425Y136916D01*
X1271402Y129581D01*
X1283600Y124528D01*
X1296548Y121953D01*
X1309751D01*
X1322700Y124528D01*
X1334897Y129581D01*
X1345875Y136916D01*
X1355210Y146251D01*
X1362545Y157229D01*
X1367598Y169426D01*
X1370173Y182375D01*
Y195578D01*
X1367598Y208526D01*
X1362545Y220724D01*
X1355210Y231702D01*
X1345875Y241037D01*
X1334897Y248372D01*
X1322700Y253424D01*
X1309751Y256000D01*
D02*
G37*
G36*
X787791Y159543D02*
X779139D01*
X771145Y156232D01*
X765028Y150115D01*
X761717Y142121D01*
Y133469D01*
X765028Y125476D01*
X771145Y119358D01*
X779139Y116047D01*
X787791D01*
X795784Y119358D01*
X801902Y125476D01*
X805213Y133469D01*
Y142121D01*
X801902Y150115D01*
X795784Y156232D01*
X787791Y159543D01*
D02*
G37*
G36*
X539759D02*
X531107D01*
X523114Y156232D01*
X516996Y150115D01*
X513685Y142121D01*
Y133469D01*
X516996Y125476D01*
X523114Y119358D01*
X531107Y116047D01*
X539759D01*
X547752Y119358D01*
X553870Y125476D01*
X557181Y133469D01*
Y142121D01*
X553870Y150115D01*
X547752Y156232D01*
X539759Y159543D01*
D02*
G37*
G36*
X1043696Y159543D02*
X1035044D01*
X1027051Y156232D01*
X1020933Y150114D01*
X1017622Y142121D01*
Y133469D01*
X1020933Y125476D01*
X1027051Y119358D01*
X1035044Y116047D01*
X1043696D01*
X1051690Y119358D01*
X1057807Y125476D01*
X1061118Y133469D01*
Y142121D01*
X1057807Y150114D01*
X1051690Y156232D01*
X1043696Y159543D01*
D02*
G37*
G36*
X1583858Y152061D02*
Y112204D01*
X1605784D01*
Y122047D01*
X1604701Y130269D01*
X1601527Y137931D01*
X1596479Y144511D01*
X1589900Y149559D01*
X1583858Y152061D01*
D02*
G37*
G36*
X1564173Y152061D02*
X1558132Y149559D01*
X1551553Y144511D01*
X1546504Y137931D01*
X1543331Y130269D01*
X1542248Y122047D01*
Y112204D01*
X1564173D01*
Y152061D01*
D02*
G37*
G36*
X1924016Y152061D02*
Y112204D01*
X1945941D01*
Y122047D01*
X1944859Y130269D01*
X1941685Y137931D01*
X1936636Y144511D01*
X1930057Y149559D01*
X1924016Y152061D01*
D02*
G37*
G36*
X1904331D02*
X1898289Y149559D01*
X1891710Y144511D01*
X1886661Y137931D01*
X1883488Y130269D01*
X1882405Y122047D01*
Y112204D01*
X1904331D01*
Y152061D01*
D02*
G37*
G36*
X1564173Y92519D02*
X1542248D01*
Y82677D01*
X1543331Y74455D01*
X1546504Y66793D01*
X1551553Y60214D01*
X1558132Y55165D01*
X1564173Y52663D01*
Y92519D01*
D02*
G37*
G36*
X1945941Y92519D02*
X1924016D01*
Y52663D01*
X1930057Y55165D01*
X1936636Y60214D01*
X1941685Y66793D01*
X1944859Y74455D01*
X1945941Y82677D01*
Y92519D01*
D02*
G37*
G36*
X1904331D02*
X1882405D01*
Y82677D01*
X1883488Y74455D01*
X1886661Y66793D01*
X1891710Y60214D01*
X1898289Y55165D01*
X1904331Y52663D01*
Y92519D01*
D02*
G37*
G36*
X1605784Y92519D02*
X1583858D01*
Y52663D01*
X1589900Y55165D01*
X1596479Y60214D01*
X1601527Y66793D01*
X1604701Y74455D01*
X1605784Y82677D01*
Y92519D01*
D02*
G37*
G36*
X1751232Y-640613D02*
X1751101Y-640678D01*
X1750839Y-640744D01*
X1750380Y-640941D01*
X1749724Y-641137D01*
X1749002Y-641334D01*
X1748215Y-641597D01*
X1746378Y-642056D01*
X1746312D01*
X1746247Y-642121D01*
X1745853Y-642187D01*
X1745263Y-642384D01*
X1744607Y-642646D01*
X1743885Y-642909D01*
X1743164Y-643171D01*
X1742573Y-643499D01*
X1742114Y-643827D01*
X1742048Y-643893D01*
X1741983Y-643958D01*
X1741851Y-644155D01*
X1741655Y-644417D01*
X1741327Y-645073D01*
X1741261Y-645467D01*
X1741196Y-645861D01*
Y-645926D01*
Y-646057D01*
X1741261Y-646320D01*
X1741327Y-646648D01*
X1741589Y-647304D01*
X1741786Y-647697D01*
X1742114Y-648025D01*
X1742179D01*
X1742311Y-648157D01*
X1742507Y-648288D01*
X1742770Y-648419D01*
X1743164Y-648550D01*
X1743623Y-648681D01*
X1744213Y-648747D01*
X1744803Y-648813D01*
X1745131D01*
X1745459Y-648747D01*
X1745919Y-648681D01*
X1746444Y-648616D01*
X1747034Y-648419D01*
X1747624Y-648222D01*
X1748215Y-647960D01*
X1748280Y-647894D01*
X1748477Y-647763D01*
X1748739Y-647632D01*
X1749133Y-647369D01*
X1749855Y-646648D01*
X1750248Y-646254D01*
X1750511Y-645795D01*
X1750576Y-645729D01*
X1750642Y-645533D01*
X1750773Y-645270D01*
X1750904Y-644877D01*
X1751035Y-644352D01*
X1751101Y-643827D01*
X1751232Y-643105D01*
Y-642384D01*
Y-640613D01*
D02*
G37*
G36*
X1818210Y-631297D02*
X1817751D01*
X1817292Y-631429D01*
X1816701Y-631560D01*
X1816045Y-631822D01*
X1815323Y-632216D01*
X1814602Y-632741D01*
X1813946Y-633462D01*
X1813880Y-633528D01*
X1813815Y-633725D01*
X1813618Y-633987D01*
X1813421Y-634446D01*
X1813224Y-634971D01*
X1813027Y-635627D01*
X1812831Y-636414D01*
X1812699Y-637333D01*
X1823655D01*
Y-637267D01*
Y-637201D01*
X1823589Y-636808D01*
X1823458Y-636217D01*
X1823327Y-635561D01*
X1823064Y-634774D01*
X1822802Y-634053D01*
X1822408Y-633331D01*
X1821883Y-632741D01*
X1821818Y-632675D01*
X1821621Y-632544D01*
X1821359Y-632281D01*
X1820899Y-632019D01*
X1820375Y-631757D01*
X1819784Y-631494D01*
X1818997Y-631363D01*
X1818210Y-631297D01*
D02*
G37*
%LPD*%
D28*
X1630315Y247244D02*
D03*
X1857874D02*
D03*
D29*
X1914173Y266929D02*
D03*
X1574016D02*
D03*
D30*
X1914173Y102362D02*
D03*
X1574016D02*
D03*
D31*
X1881102Y720472D02*
D03*
D32*
X1781102D02*
D03*
X1681102D02*
D03*
X1581102D02*
D03*
X1481102D02*
D03*
D33*
X600000Y669680D02*
D03*
X700000D02*
D03*
X650000D02*
D03*
D34*
X385827Y456693D02*
D03*
X476378Y519291D02*
D03*
X535433Y137795D02*
D03*
X751968Y35433D02*
D03*
X1304626Y433071D02*
D03*
X899114Y637795D02*
D03*
X798311Y602362D02*
D03*
X966535Y740158D02*
D03*
X901082D02*
D03*
X704724D02*
D03*
Y602362D02*
D03*
X770177Y740158D02*
D03*
X835630D02*
D03*
X964567Y637795D02*
D03*
X433071Y389764D02*
D03*
X350394D02*
D03*
X403543Y247638D02*
D03*
X960630Y539370D02*
D03*
X755905Y492126D02*
D03*
X795276Y519685D02*
D03*
X1035433Y578740D02*
D03*
X1472441Y448819D02*
D03*
X1606299Y456693D02*
D03*
X1740158Y515748D02*
D03*
X641535Y519488D02*
D03*
X566929Y429134D02*
D03*
X948819Y145669D02*
D03*
X903149Y236220D02*
D03*
X783465Y137795D02*
D03*
X403543Y185433D02*
D03*
X1039370Y137795D02*
D03*
X1838583Y326772D02*
D03*
X1649606D02*
D03*
X519685Y228346D02*
D03*
Y267716D02*
D03*
D35*
X618110Y291339D02*
D03*
X661417D02*
D03*
X704724D02*
D03*
X618110Y248031D02*
D03*
X661417D02*
D03*
X704724D02*
D03*
X618110Y204724D02*
D03*
X661417D02*
D03*
X704724D02*
D03*
%TF.MD5,5b6ef009450400ee9916eedd9bca21dc*%
M02*
