%TF.GenerationSoftware,Altium Limited,Altium Designer,23.11.1 (41)*%
G04 Layer_Color=0*
%FSLAX26Y26*%
%MOIN*%
%TF.SameCoordinates,9526E2AF-B100-4743-A6B5-6A4C7E8B4C09*%
%TF.FilePolarity,Positive*%
%TF.FileFunction,Plated,1,4,PTH,Drill*%
%TF.Part,Single*%
G01*
G75*
%TA.AperFunction,ComponentDrill*%
%ADD71O,0.023622X0.066929*%
%ADD72O,0.023622X0.055118*%
%ADD73C,0.035433*%
%ADD74C,0.023622*%
%TA.AperFunction,ViaDrill,NotFilled*%
%ADD75C,0.015748*%
D71*
X1914173Y266929D02*
D03*
X1574016D02*
D03*
D72*
X1914173Y102362D02*
D03*
X1574016D02*
D03*
D73*
X1881102Y720472D02*
D03*
X1781102D02*
D03*
X1681102D02*
D03*
X1581102D02*
D03*
X1481102D02*
D03*
D74*
X600000Y669680D02*
D03*
X700000D02*
D03*
X650000D02*
D03*
D75*
X385827Y456693D02*
D03*
X476378Y519291D02*
D03*
X535433Y137795D02*
D03*
X751968Y35433D02*
D03*
X1304626Y433071D02*
D03*
X899114Y637795D02*
D03*
X798311Y602362D02*
D03*
X966535Y740158D02*
D03*
X901082D02*
D03*
X704724D02*
D03*
Y602362D02*
D03*
X770177Y740158D02*
D03*
X835630D02*
D03*
X964567Y637795D02*
D03*
X433071Y389764D02*
D03*
X350394D02*
D03*
X403543Y247638D02*
D03*
X960630Y539370D02*
D03*
X755905Y492126D02*
D03*
X795276Y519685D02*
D03*
X1035433Y578740D02*
D03*
X1472441Y448819D02*
D03*
X1606299Y456693D02*
D03*
X1740158Y515748D02*
D03*
X641535Y519488D02*
D03*
X566929Y429134D02*
D03*
X948819Y145669D02*
D03*
X903149Y236220D02*
D03*
X783465Y137795D02*
D03*
X403543Y185433D02*
D03*
X1039370Y137795D02*
D03*
X1838583Y326772D02*
D03*
X1649606D02*
D03*
X618110Y291339D02*
D03*
X661417D02*
D03*
X704724D02*
D03*
X618110Y248031D02*
D03*
X661417D02*
D03*
X704724D02*
D03*
X618110Y204724D02*
D03*
X661417D02*
D03*
X704724D02*
D03*
X519685Y228346D02*
D03*
Y267716D02*
D03*
%TF.MD5,035d02577e5d6a52d71b4942feb49ec2*%
M02*
